<svg xmlns="http://www.w3.org/2000/svg" width="1850" height="1850"><path d="M1577 81c6.643 2.337 6.643 2.337 8.313 5.438L1586 89c1.447 3.412 3.349 5.429 6 8a248.794 248.794 0 0 1 3 4l2 2v3h2v3h2v3h2v3l2 1c1.29 1.523 1.29 1.523 2.625 3.375l1.352 1.836C1610 123 1610 123 1610 126l3 1c1.886 3.213 3 5.246 3 9l2 1c2.418 2.82 3.66 5.564 5 9l1.5 2.438c1.635 2.793 2.477 5.493 3.5 8.562.99 2.048 2.029 4.062 3.098 6.07.93 1.99 1.538 3.765 1.902 5.93l-1 2h2c1.125 4.75 1.125 4.75 0 7h2l-1 7h2l-.001 1.685a271446.402 271446.402 0 0 0-.054 110.723v2.387c-.005 12.754-.013 25.508-.022 38.262-.01 13.086-.015 26.173-.017 39.26-.001 8.075-.006 16.15-.014 24.225-.006 6.192-.006 12.384-.005 18.576 0 2.54-.002 5.08-.006 7.62a4679.14 4679.14 0 0 0-.001 10.398l-.01 3.05c.012 5.057.4 9.804 1.13 14.814.142 3.25.135 6.495.127 9.747l.005 2.922c.004 3.22 0 6.442-.003 9.663l.006 6.94c.004 6.276.002 12.553 0 18.83-.003 6.57 0 13.14 0 19.711.003 11.742 0 23.484-.006 35.226-.004 10.637-.003 21.275.001 31.912.006 12.363.008 24.726.005 37.09-.002 6.54-.002 13.08.001 19.62.003 6.151.001 12.301-.005 18.451 0 2.256 0 4.512.002 6.768.002 3.082-.001 6.164-.006 9.246l.007 2.697c-.012 3.785-.115 7.462-.634 11.214-.562 4.45-.636 8.76-.62 13.24l-.003 2.73c-.001 3.001.004 6.003.01 9.005l-.001 6.476c0 5.849.006 11.697.013 17.546.006 6.116.006 12.233.008 18.35.003 11.577.01 23.154.021 34.73.011 13.183.017 26.366.022 39.549.01 27.112.028 54.225.05 81.337-7.68 2.257-7.68 2.257-11.191 2.135l-2.243-.06-2.343-.098-2.459-.076c-2.568-.082-5.134-.179-7.701-.276-1.751-.058-3.502-.116-5.252-.172-4.271-.14-8.541-.292-12.811-.453l-1-3 3-1V192h-1c-.125-6.75-.125-6.75 1-9l-3-1v-1c-.817-3.058-.817-3.058-2.875-5.25-1.97-2.549-3.086-4.861-4.266-7.836-1.58-3.518-3.745-6.698-5.859-9.914-3.284 3.782-5.512 7.714-7.563 12.25l-.918 1.996A115.437 115.437 0 0 0 1565 187h-2c-.025 7.332-.043 14.665-.055 21.997-.005 2.495-.012 4.99-.02 7.484-.013 3.585-.018 7.169-.023 10.753l-.015 3.385v3.153l-.007 2.773c.02 2.358.02 2.358.62 4.16.694 3.186.62 6.22.614 9.482v2.197c0 2.429-.009 4.857-.016 7.286l-.005 5.224c-.003 3.75-.01 7.498-.018 11.247-.013 5.924-.02 11.848-.024 17.772-.011 12.57-.03 25.141-.051 37.712-.022 13.577-.043 27.154-.053 40.73-.005 5.894-.015 11.788-.029 17.682-.007 3.659-.01 7.318-.013 10.977a2440.66 2440.66 0 0 1-.01 5.106c-.008 2.316-.009 4.631-.009 6.947l-.006 3.934c-.089 2.924-.089 2.924 1.12 4.999.098 2.566.134 5.105.126 7.672l.004 2.44c.004 2.726 0 5.452-.003 8.18l.005 5.888c.004 5.417.002 10.834-.001 16.25-.003 5.834 0 11.667.004 17.5.004 11.436.003 22.872 0 34.309-.002 9.29-.002 18.582-.001 27.873v4l.001 6.026c.003 25.124 0 50.247-.005 75.37a157073 157073 0 0 0 0 67.006 223401.778 223401.778 0 0 1 .004 83.24v3.985c-.002 9.284 0 18.568.002 27.852.003 11.308.002 22.616-.003 33.924-.003 5.775-.004 11.55 0 17.324.003 5.279.001 10.558-.004 15.838-.001 1.916 0 3.833.002 5.75.003 2.591 0 5.183-.005 7.776l.007 2.288c-.011 3.112-.14 5.532-1.133 8.509-.228 2.733-.417 5.45-.563 8.188l-.13 2.271c-.106 1.847-.207 3.694-.307 5.541l2 1h-2v2c-3.633.84-6.95 1.107-10.676 1.063l-3.26-.024-6.718-.078c-5.893-.042-11.521.13-17.346 1.039-2.521-2.928-3.375-4.695-3.372-8.555l-.02-2.772.025-3.037-.01-3.238c-.008-3.598.007-7.196.02-10.794 0-2.579-.002-5.158-.006-7.737-.005-6.316.005-12.632.02-18.948.018-7.462.02-14.925.02-22.387.002-13.455.018-26.91.042-40.365.023-12.795.037-25.59.04-38.384l.001-2.344.003-9.353c.023-75.7.386-151.39 1.237-227.086h-2V189h2l-1-9h2l-1-4h2l-.5-1.813C1524 172 1524 172 1524 169l2-1-1-2 2-1-1-2 2-1v-4c.98-1.02 1.979-2.021 3-3v-3l4-6c1.2-3.1 1.2-3.1 2-6 1-3 1-3 4-5 .73-2.563.73-2.563 1-5h2l.313-2.313c.743-2.906 1.536-3.723 3.687-5.687v-2l2-2 .938-2c1.062-2 1.062-2 4.062-4l2-2-1-2 3-2a70.134 70.134 0 0 0 1-4c2-2 2-2 4.063-2.75L1566 98c.381-1.991.713-3.993 1-6 1.375-1.563 1.375-1.563 3-3l1.438-2.625C1573 84 1573 84 1575.188 83.187L1577 83v-2zm3 74 1 2 2-1-3-1zm9 16 1 2 1-2h-2zm-23 2 1 2zm24 1 1 2 1-2h-2zm-26 4 1 2zM931 177h10v2l3-1 5 5 2.75 2.625C954 188 954 188 955 191l-1 3h2c.046 10.066.082 20.133.104 30.199.01 4.674.024 9.349.047 14.023.022 4.513.034 9.026.039 13.539.003 1.72.01 3.44.021 5.16.015 2.412.017 4.825.016 7.238l.022 2.144c-.018 4.287-.7 7.71-2.249 11.697l-1 3-1.875.875c-2.804 1.485-3.672 3.365-5.125 6.125l-7-1-1 3h-7l2-1v-2l-1.688 1.063c-2.997 1.215-4.252.957-7.312-.063-3.187-1.75-5.43-3.132-7.438-6.188-.81-4.05-.215-7.763.438-11.812h-2v-68h2l-1-9h2l-1-3c1.68-4.154 3.671-7.016 7-10l1 1 3-3 3 1v-2zm-12 104 1 2 2-1-3-1zm3 2 1 3v-3h-1zm3 2 1 2zm2 1 1 2zM791 204h7v2l3-1c3.864 1.246 5.623 3.831 8 7l2 2c3.442 4.885 6.33 9.589 7.938 15.375.841 2.87 1.698 5.018 3.062 7.625 1.87 3.575 2.89 7.117 4 11 .64 1.346 1.31 2.68 2 4 1.87 3.575 2.89 7.117 4 11 .64 1.346 1.31 2.68 2 4 1.864 3.576 2.985 7.087 4 11l1.188 3.313C840 284 840 284 839 286h2c.231 5.66.194 10.671-2 16-2.625 2.438-2.625 2.438-5 4l-2-1-1.375 1.438c-2.342 2.252-4.521 2.838-7.625 3.562v-1h-6l1 2c-2.875-.313-2.875-.313-6-1l-2-3c-2.327-2.389-4.655-4.704-7.188-6.875-2.394-2.808-2.942-5.58-3.812-9.125l-1-1a208.063 208.063 0 0 1-2-5l2-1-3-1-2-3 .563-2 .437-2c-1.354-1.772-1.354-1.772-3-3l1-2-3-2v-6l-3-1c-1-3-1-3-1-4l-.563-2-.437-2 1-1-2-2c-1-1-1-1-1.375-4.375-.663-3.844-.966-4.179-3.625-6.625-1.473-3.644-2-6.028-2-10l1-2h-2c-.197-10.05-.197-10.05 1-14l2-2 1-2h2v-2c2.652-1.075 5.284-2.095 8-3l2 1v-2zm23 103-1 2h2l-1-2zM1075 204h4v2l1.688-.688C1083 205 1083 205 1085.374 206c4.237 3.228 7.923 6.894 9.625 12l-1 2h2v8h-2l.617 1.691c.497 2.994-.263 4.495-1.492 7.246-1.163 2.63-2.1 4.94-2.66 7.766-.54 2.67-1.398 3.59-3.465 5.297l1 2-1.375 1.125c-2.83 3.265-3.48 7.325-4.563 11.438-1.002 3.243-2.07 5.698-4.062 8.437h-2v2l2 1-1.438 1.813c-1.727 2.19-1.727 2.19-2.562 5.187h-2v2l2 1-1.438 1.063c-2.24 2.779-2.233 5.451-2.562 8.937h-2l-.688 3.375L1066 303c-2.5 1.125-2.5 1.125-5 2l-2 5h-17l-1-3-2.688-.125c-4.623-1.221-5.733-2.89-8.312-6.875.25-2.188.25-2.188 1-4l-1-3c-.128-2.674-.044-5.321 0-8h2v-2l-2-1h3l-.5-1.938C1032 278 1032 278 1032 277c.98-1.348 1.98-2.682 3-4l-1-2 2-1v-4l3-3v-4l2-1v-4c1.5-1.75 1.5-1.75 3-3l-1-2 1.5-1.25c1.934-1.872 1.934-1.872 1.5-5.75.98-1.02 1.979-2.021 3-3v-3c.65-1.342 1.317-2.675 2-4l.438-2.063c.562-1.937.562-1.937 2-3.312 2.18-2.267 2.665-4.636 3.562-7.625 1.099-3.022 1.715-4.715 4-7l1-2h2v-2l9-3 2 1v-2zm-41 98 4 4-2-4h-2zM672 282c4.209-.196 7.213.106 11 2l2 2 2.33 2.329c2.468 2.469 4.933 4.94 7.397 7.414 4.488 4.504 8.978 9.005 13.47 13.505 2.708 2.714 5.417 5.43 8.123 8.147 2.63 2.64 5.261 5.278 7.895 7.915 1 1.001 1.998 2.003 2.996 3.007 1.395 1.402 2.793 2.8 4.192 4.2l2.403 2.41c2.119 2.105 2.119 2.105 4.481 3.666L740 340v3l3 1c1.25 2.438 1.25 2.438 2 5l-1 2h2v6h-2l1 3c-4.155 6.925-10.915 11.458-18 15-3.063.125-3.063.125-6 0l-1-1-1.836-.379C710.608 371.453 703.062 361.674 698 356v-2h-2v-2h-2l1-2c-3.023-3.937-6.338-7.47-9.86-10.957l-1.664-1.66c-1.74-1.734-3.483-3.465-5.226-5.195A7342.85 7342.85 0 0 0 666 320l2 4c-4.529-2.03-7.343-4.826-10-9-1-2.97-1.592-5.897-2-9h2v-2h-2c0-10 0-10 1.188-11.313L659 291l2.313-3.063c2.874-3.141 4.56-4.112 8.687-4.937l2 1v-2zm-12 32 1 2 2-1-3-1zm54 54 1 3v-3h-1zm4 3 1 2zM1193 283h7v2l3-1c2.563.625 2.563.625 5 2 1.125 2.438 1.125 2.438 2 5l1.563 1.563c1.758 1.758 2.122 2.992 2.437 5.437l-1 2h2c.192 4.808-.082 8.56-2 13-1.625 1.75-1.625 1.75-3 3v2l-3 1.938-3 2.062v3h-2v2h-2v2c-1.293 1.27-1.293 1.27-3.188 2.813-3.982 3.373-7.651 6.974-11.312 10.687-4.069 4.116-8.185 8.066-12.594 11.82-5.404 4.762-10.608 9.888-14.906 15.68l-1-1-4 4-3-1v2l-8 1 1-3-3 1c-2.83-.283-4.535-.647-6.813-2.375C1132 369 1132 369 1132 366l-4-1-1-5h2v-2h-2v-8h2l-1-3c.188-2 .188-2 1-4a99.797 99.797 0 0 1 4-3v-2c1.574-1.332 1.574-1.332 3.688-2.813 3.458-2.518 6.51-4.947 9.312-8.187v-3h2v-2c1.645-1.621 1.645-1.621 3.813-3.438 3.012-2.535 3.012-2.535 5.824-5.285C1159 312 1159 312 1161 312v-2c1.293-1.27 1.293-1.27 3.188-2.813 5.244-4.446 10.024-9.319 14.859-14.199l1.543-1.557c1.221-1.24 2.43-2.49 3.637-3.743 2.119-2.017 3.974-2.878 6.773-3.688l2 1v-2zm-58 86 1 2zM917 323v-1h38v2l9-1v2l3.875-.563c3.875-.562 3.875-.562 6.125.563h3v2l5-2v3l4-2 1 3 5-2v3h2v-2h2v3h2v-2h2v3l1.75-.5c2.25-.5 2.25-.5 6.25-.5 1.75 1.5 1.75 1.5 3 3l2-2 1.813 1.5c2.157 1.783 2.157 1.783 5.187 1.5l5 4h3c3 1 3 1 4 3l3-1c5.696 2.392 5.696 2.392 7 5a130.527 130.527 0 0 0 6 3.313c1.184.624 2.367 1.25 3.55 1.875L1055 353a690.55 690.55 0 0 1 5.188 2.813l2.105 1.144C1064 358 1064 358 1066 360c3.246 2.285 3.246 2.285 7 3a179.948 179.948 0 0 1 4 4c2.137 1.724 4.263 3.156 6.625 4.563 3.269 1.978 5.682 4.744 8.375 7.437l2-1 1.75 2.938c1.823 3.194 1.823 3.194 4.16 3.464 3.047.872 3.948 2.684 5.777 5.223 3.402 4.476 6.898 7.644 11.528 10.805 2.1 1.847 2.247 2.894 2.785 5.57a141.4 141.4 0 0 0 5 5 99.797 99.797 0 0 1 3 4c1.604 2.232 3.117 4.11 5.125 6 1.992 2.125 2.32 3.223 2.875 6l2 2 .938 2c1.03 2.321 1.03 2.321 4.062 4v4l2 1c3.601 4.759 6.056 10.024 8.633 15.39 1.239 2.68 1.239 2.68 3.367 4.61v3c.828 2.018.828 2.018 1.938 4.063l1.09 2.097.972 1.84 1 2h-2v5l-2.09.516c-5.598 1.443-10.701 3.176-15.922 5.652-1.988.832-1.988.832-5.113 1.27-4.159.813-6.55 2.968-9.875 5.562l-2-2 1-2-4 1c-4.932-6.042-8.504-12.423-12.07-19.316-5.278-10.178-11.439-19.247-18.77-28.059-2.3-2.794-4.464-5.66-6.613-8.57-4.98-6.779-4.98-6.779-10.547-13.055h-3c-2.688-1.375-2.688-1.375-5-3v-2h-2v-2l-1.875-.813C1060 410 1060 410 1058 407c-2.076-1.79-3.796-2.925-6.375-3.875-3.413-1.463-5.782-3.756-8.625-6.125-1.661-.68-3.33-1.344-5-2a431.003 431.003 0 0 1-7.25-3.875c-4.314-2.341-8.602-4.58-13.125-6.5C1014 383 1014 383 1013 381h-3c-3.125-.875-3.125-.875-6-2l-1-2-2 1-1-2h-3l-3-1 1-2h-2v2c-5.875-.875-5.875-.875-7-2a92.517 92.517 0 0 0-4.5-.438c-5.531-.5-11.475-1.05-16.5-3.562a139.595 139.595 0 0 0-4-1l1-2h-3v2h-7v-2l-2.2.492c-2.609.473-4.955.637-7.6.64l-2.714.005-2.798-.012-2.764.012c-5.4-.008-10.581-.348-15.924-1.137v2l-14 1v-2h-2v3l-8 1v-2h-2v3c-1.936.504-3.874 1.003-5.813 1.5l-3.269.844C880 375 880 375 877 375v-2h-2v3l-10 3-1-1-1.063 1.375C861 381 861 381 857.828 381.879c-3.942 1.154-7.405 2.774-11.015 4.683-3.551 1.865-6.877 3.551-10.813 4.438l-1.438 1.438c-1.988 1.988-3.915 2.68-6.562 3.562h-2l-2 2-2 2h-2l-1 3-2.875.875c-3.735 1.345-4.464 2.618-6.125 6.125l-2-1-1.688 1.688L804 413l-2.438 2.5c-2.413 2.354-4.926 4.404-7.562 6.5-3.098 2.898-5.811 6.073-8.535 9.316-1.426 1.639-2.913 3.165-4.465 4.684l-2.188 2.188L777 440l1 2-2.375 1.875c-2.593 2.024-2.593 2.024-4.625 4.125v3c-1.39 2.559-1.39 2.559-3.25 5.438l-1.828 2.87C764 462 764 462 761.812 464.177c-2.195 2.21-2.473 3.777-2.812 6.824h-2l-.55 2.082-.763 2.73-.738 2.708c-.991 2.59-2.004 3.587-3.949 5.48-.708 1.9-.708 1.9-1.063 3.938-.652 2.967-1.453 5.39-2.937 8.062-1.105 2.79-1.105 2.79-1 5l-4 2v2l2 1-2 3h-2v2h2l-2 4h-2v2h2c-1.5 4.5-1.5 4.5-3 6h1c-.586 9.449-.586 9.449-4 13l-2 3c-2.547.325-2.547.325-5.75.258l-3.535-.043-3.715-.09c-11.057-.204-11.057-.204-22.048.841-1.952.034-1.952.034-4.577-1.904L691 536h3l-1-6h2l-2-5 3-1-1-5h2l-1-5h2l-2-4h3l-2-4h3v-2l-2-1 2-2-1-2h3v-2l-2-1 2-2c.932-2.123.932-2.123 1.688-4.5l.824-2.406c.733-2.136.733-2.136-.512-4.094l2-1v-4h3v-2l-2-1 2-1a252.656 252.656 0 0 0 2-6l2-3v-3c1.023-2.995 1.745-4.745 4-7a126.235 126.235 0 0 0 2-6h2l.375-2.375C722 444 722 444 724 442l1-2.5c1.09-2.723 2.392-3.965 4.563-5.875 1.657-1.874 1.894-3.222 2.437-5.625a337.031 337.031 0 0 1 3.938-3.875c1.892-1.95 3.447-3.948 5.062-6.125l1.688-1.563c1.65-1.482 1.65-1.482 1.312-4.437a210.028 210.028 0 0 1 5-4v-2c2.493-2.09 5.1-3.995 7.715-5.93 2.327-2.108 2.963-3.01 3.285-6.07h2v-2h2l1-2 1.836-.867c2.61-1.367 3.937-2.981 5.789-5.258A70.52 70.52 0 0 1 776 380h2a105.022 105.022 0 0 0 4-5l1 1 1.875-1.875L789 370h3l1-3a89.286 89.286 0 0 1 5-2l2-2c3.509-2.697 7.008-5.078 11-7l2-2 1 1 1.265-1.381c1.786-1.667 3.285-2.522 5.5-3.521l2.2-1.01 2.285-1.026c4.29-1.942 8.52-3.872 12.586-6.253 3.368-1.926 6.434-2.78 10.164-3.809a179.839 179.839 0 0 0 4.438-2c4.153-1.899 8.074-3.134 12.562-4l2 1 1-3h4l2-2c3.112 0 5.942.456 9 1v-3l6 2v-2h5l-1-2c5.75.875 5.75.875 8 2l1-3 6 2v-2c3.478-1.16 5.459-.708 9 0zm90 9 1 2zm6 2 1 2zm6 2 1 2zm10 4 1 2zm7 3 1 2zm2 1 1 2zm-130 22 2 2 1-2h-3zm-21 4 1 2 1-2h-2zm95 0 1 2zm-99 1 1 2zm107 1 1 2zm-130 6 1 2zm158 4 1 2zm2 1 1 2zm16 8 1 2zm2 1 1 2zm2 1 1 2zm8 5 1 2zm3 2 1 2zm11 8 1 2zm4 3 1 3v-3h-1zm20 20 2 3 2-1-4-2zm6 7 1 2 2-1-3-1zm36 48 1 2zm-393 40 1 2 1-2h-2zm-1 4 1 2 1-2h-2zM589 399c6.815-.55 10.738.476 16.707 3.762 2.675 1.444 5.394 2.34 8.293 3.238a86.75 86.75 0 0 1 4 2v2l3-1c1.679.98 3.343 1.983 5 3l3.5 1c3.341.955 5.57 2.197 8.5 4 1.996.68 3.996 1.346 6 2l2.938 1.5c3.06 1.61 3.06 1.61 6.562 2.5 3.473.992 6.319 2.308 9.5 4l3.25 1.563C669 430 669 430 671 432c1.317.697 2.65 1.37 4 2v3c1.438 1.688 1.438 1.688 3 3l-1 3h2v9h-2l.688 2.813c.312 3.187.312 3.187-.875 5-1.946 1.274-3.531 1.794-5.813 2.187l1 3a135.916 135.916 0 0 1-7 3l-2-1v2h-7v-3l-5 2-1-2-2 1-1.313-1.5c-1.684-1.832-1.684-1.832-4.687-1.5l-6-4c-3.249-1.274-5.512-2-9-2l-1.371-1.383c-2.072-2.056-3.925-2.592-6.692-3.492-4.806-1.653-9.205-3.689-13.71-6.027-2.665-1.314-5.4-2.201-8.227-3.098l-3-2-2 1-2-2-2.25-.375c-5.659-1.286-9.614-4.863-12.75-9.625-.75-2.813-.75-2.813-1-5h2v-2l-3-1 .438-2.125c.385-1.97.716-3.95 1-5.938.745-3.891 1.766-6.141 4.562-8.937a248.794 248.794 0 0 0 3-4l1 1 3-3 3 1v-2zm-11 33 4 4-2-4h-2zm6 4 1 2zm3 2 1 2zM1275 401h6v2l3-1c2.596 1.023 4.01 2.01 6 4l2 1v3l3 1c1.25 2.938 1.25 2.938 2 6l-1 2h2v7h-2l1 3c-1.632 4.123-3.214 6.65-7 9l-1-1-1 3c-2.375.938-2.375.938-6 2-1.817.634-3.629 1.28-5.438 1.938l-2.867 1.039a112.171 112.171 0 0 0-6.757 2.836L1264 449l-2-1-1 2c-2.438 1.188-2.438 1.188-5 2l-2-1-1 2c-3.086 1.763-5.947 2.985-9.375 3.938-3.538 1.036-6.448 2.42-9.7 4.105A40.577 40.577 0 0 1 1226 464l-2-1-1 2-3 2-1 1c-2.942.98-4.99 1.165-8.063 1.188l-2.66.042C1206 469 1206 469 1204 467l-2.438-.313c-2.562-.687-2.562-.687-4.25-2.937-2.025-4.244-3.312-6.971-3.312-11.75l-.105-2.55c-.18-6.016.264-10.123 3.105-15.45h2l1-3 2 1 1.125-1.313c4.294-3.865 9.438-5.134 14.875-6.687a402.401 402.401 0 0 0 6-3l6-2 2.938-1.5c3.062-1.5 3.062-1.5 6.312-2.375 4.052-1.216 7.497-2.95 11.246-4.879 3.446-1.715 6.838-3.068 10.504-4.246l2 1 1-2c2.438-1.188 2.438-1.188 5-2l2 1v-2l4 1v-2zm-78 59 5 5c-.791-2-.791-2-2-4l-3-1zm10 6-1 2h2l-1-2z"/><path d="M1185 505h4v2l2.992-.254 3.883-.308 3.867-.317C1203 506 1203 506 1205 507h3v2l4-1v2l1.688-.563c3.738-.707 6.758.378 10.312 1.563 1.688 1.563 1.688 1.563 3 3l2-2 2 1v3l2-2 1.313 2.375c1.58 2.842 1.58 2.842 4.687 4.625l2-1 2 3c1.997 1.67 3.997 3.338 6 5l1 2h3v-2l7-2v-2h4l2-2h3l2-2c4 0 4 0 6 1v-2l4 1v-2l6 1v-2h28v2l9-1v2l5-1v2l2.18-.61c3.292-.455 4.907.078 7.945 1.36l2.57 1.047c2.355 1.23 3.658 2.135 5.305 4.203.356 2.252.356 2.252.328 4.852l-.015 2.828-.063 2.945-.016 2.969c-.08 7.252-.08 7.252-1.234 8.406a119.783 119.783 0 0 0 0 5.5c.038 1.833.046 3.667 0 5.5l-1 1a110.238 110.238 0 0 0-.063 5.563l.028 3.066L1345 572h-2l.254 2.371.309 3.067.316 3.058L1344 583l-1 1a153.02 153.02 0 0 0-.063 6.563l.028 3.628L1343 597h-2l.508 2.484.617 3.266.633 3.234c.263 3.276-.172 4.252-1.758 7.016-.448 2.356-.448 2.356-.625 4.75l-.227 2.422L1340 622h3c1.684 1.61 1.684 1.61 3.438 3.75l1.863 2.215L1350 630c2.138 2.326 3.734 3.854 6.5 5.375 3.15 2.047 4.458 4.498 6.5 7.625 2.324 2.091 4.346 3.701 7.188 5 2.305 1.272 2.852 2.6 3.812 5h2c1.23 1.429 2.453 2.864 3.625 4.34 1.536 1.914 1.536 1.914 4.188 4.41C1386 664 1386 664 1386 666a178.888 178.888 0 0 0 4 4c4 4.667 4 4.667 4 7l1.375 1.25c1.625 1.75 1.625 1.75 2.563 4.813.738 3.056.738 3.056 3.124 4.062L1403 688l.438 2 .562 2 2.313.875c3.62 1.516 4.564 3.906 6.687 7.125 2.069.643 2.069.643 4 1l2 4 1.938.438c3.042.83 3.514 2.937 5.062 5.562h3a791.206 791.206 0 0 1 3 5c2 1.209 2 1.209 4 2l2 2 3 1 2 3h2l1.438 2.5L1448 729h3c1.797 1.977 1.797 1.977 3.75 4.625 2.523 3.315 4.866 6.05 8.188 8.563 2.66 2.163 3.026 2.69 4.062 6.187 0 13.5 0 13.5-4.5 18.188L1461 768c-1.284 1.984-1.284 1.984-2 4l1 2h-2l-.375 2.938L1457 780l-2 1c-.652 2.025-.652 2.025-1 4h-2v2l2 1-2 1c-.652 2.025-.652 2.025-1 4h-2l1 3v3l-4 2 1 3a178.795 178.795 0 0 1-2 4l1 2-3 3 1 2-2 2-.5 2c-.5 2-.5 2-2.5 4l-.5 2c-.5 2-.5 2-2.5 4l-1.438 1.938c-1.421 1.876-2.786 3.518-4.562 5.062h-2l-2 2c-4 .978-7.023 1.053-11 0v2c-2 .043-4 .04-6 0l-1-1a153.02 153.02 0 0 0-6.563-.063l-3.628.028L1395 839v-2l-7 1v-2l-5 2v-3l-8 1v-2l-6 2-1-3-5 2v-3l-5 2v-3l-1.672.96c-2.613 1.167-4.734 1.44-7.578 1.665l-2.703.227L1344 834v-2c-2.409.113-2.409.113-5 1-1.699 2.498-1.699 2.498-3 5h-2c-2.52 4.87-3.104 8.49-3 14l2.773.402 3.602.535 3.586.528C1344 854 1344 854 1346 855v2h2v2h3l1-2c3.958-.087 7.916-.14 11.875-.188l3.418-.076 3.262-.029 3.015-.048 2.43.341 2 3-1 1c3.93-.575 3.93-.575 7-3 3.5-.313 3.5-.313 7 0l2 3-4 1 3.375-.5c4.824-.594 9.78-1.031 14.625-.5l2 2 4 1v17h-2l1 5h-2l2 4-2 2 1 2-2 1c-1.375 2.903-2 4.761-2 8-1.28 3.413-2.992 4.995-6 7l1 2h-2v2a381.113 381.113 0 0 1-6 5l-1 2-1.875.438c-2.192.367-2.192.367-3.375 2-2.36 2.106-4.472 3.036-7.555 3.718-3.97-.282-5.973-2.863-8.5-5.726-3.053-4.377-4.209-8.879-5.195-14.055-.707-3.357-2.09-6.25-3.5-9.375h-2v-2l-4 2-1-3-2.813 1.063C1350 897 1350 897 1347 896v-2h-7v2l-17 1-.125 8.125-.055 2.524c-.034 4.535.49 8.077 2.18 12.351l.875 3.25c.869 2.871.869 2.871 3.25 4.125L1331 928v3c1.472 1.54 1.472 1.54 3.375 2.938 3.43 2.646 3.43 2.646 4.535 5.003 1.939 3.662 5.591 5.647 8.875 8.059 2.351 2.123 2.7 2.99 3.215 6l1.875.875c3.076 1.629 3.644 4.039 5.125 7.125a90.488 90.488 0 0 0 4 4 125.01 125.01 0 0 1 3 4l1.563 2c1.39 1.935 2.375 3.875 3.437 6l2 2 .938 2c1.03 2.321 1.03 2.321 4.062 4a115.41 115.41 0 0 1 3 6c.723 1.38 1.454 2.756 2.191 4.129l1.174 2.197c.8 1.496 1.603 2.99 2.406 4.485 4.164 7.806 4.164 7.806 5.229 11.189l-1 2 2 1 1 2-1 2 2 1c1.188 2.938 1.188 2.938 2 6l-1 2 2 1-1 2h2c1.125 4.75 1.125 4.75 0 7h2l-1 5h2l-1 4h2l-1 5h2l-.125 2.688c.124 3.285.739 5.366 2.125 8.312h-2v4h2l-1 11h2c1.125 5.625 1.125 5.625 0 9a128.715 128.715 0 0 0-.098 5.98l.01 3.526.025 3.681.014 3.717c.012 3.032.028 6.064.049 9.096h-2l.254 2.23.309 2.957.316 2.918c.12 2.852-.243 5.128-.879 7.895a98.487 98.487 0 0 0 0 5h-2l1 8h-2l1 6h-2l1 6h-2l1 5h-2l1 6h-2l1 5h-2l1 5h-2v3l2 1-3 1v2l2 1-1 3-2-1 1 4h-2l2 4-3 1 1 4h-2v2h2l-1 3-2-1v2l2 1-1 2.875c-1.102 2.896-1.102 2.896-1 5.125h-3l2 1c-.752 6.52-.752 6.52-2 8.938-1.28 2.638-1.354 5.204-1.656 8.09-.488 2.799-1.608 4.75-3.344 6.972h-2v2h2v6l3 1 1-3c2.434-1.535 2.434-1.535 5.438-3.063 4.08-2.054 4.08-2.054 7.562-4.937 1-1 1-1 4-2l1 1 3-4 1 1 4-5 1 1c1.733-1.65 3.14-3.205 4.5-5.188l1.5-1.812h3c1.5-1.333 1.5-1.333 3-3 1.947-1.508 3.93-2.95 5.938-4.375 2.562-2.019 4.79-4.29 7.062-6.625l1 1 1.188-1.25c1.812-1.75 1.812-1.75 4.187-3.625 2.736-2.215 5.173-4.603 7.625-7.125l1 1 4-5 1 1 4-5 1 1 2-4h3l2-4h3l2-4h3c2.201-2.44 2.201-2.44 4-5l1 1 1.875-2.5 2.125-2.5h2l1.938-2.438C1492 1164 1492 1164 1495 1163c1.699-2.498 1.699-2.498 3-5l2 1 1-2h3l1-2c1.625-1.75 1.625-1.75 4-3 3.814.723 6.23 1.23 9 4l2-1 1.688 1.875c2.434 2.237 4.214 3.067 7.312 4.125l5 2v2l1.875-.5c3.05-.717 5.137-.297 8.125.5h-2v2l4-2 3 2c2.366.026 2.366.026 4.97-.369 5.86-.653 11.608-.76 17.499-.729l3.16.005c3.29.005 6.58.018 9.871.03 2.237.006 4.474.01 6.71.014 4.894.01 9.788.024 14.681.042 1.703.006 3.406.007 5.109.007h2l2-2 1.5-1.375c1.62-1.756 2.527-3.454 3.5-5.625l2 1-1.063-1.813C1620 1154 1620 1154 1621 1151l1-1-4-1 2-1c-2.842-1.573-2.842-1.573-6-2v-3l-1.863.473-2.45.59-2.425.597c-2.262.34-2.262.34-5.262-.66a72.416 72.416 0 0 0-4.414-.133l-2.555-.004-2.656.012-2.68-.012-2.547.004-2.338.004c-1.831-.068-1.831-.068-2.81 1.129-2.875.25-2.875.25-6 0-1.688-1.5-1.688-1.5-3-3h-3c-2.688-1.688-2.688-1.688-5-4-.375-2.688-.375-2.688 0-5l1-1-.063-3.313c.073-4.26.688-6.331 3.72-9.32l1.843-1.492c1.93-1.578 3.735-3.11 5.5-4.875 2.92-.188 5.744-.255 8.664-.23h2.624c1.838.004 3.676.012 5.513.024 2.792.018 5.583.02 8.375.02 1.788.005 3.575.011 5.363.018l2.507.003c3.862.031 7.57.208 11.393.777 3.55.772 3.55.772 5.998-1.237 1.664-2.53 2.23-4.385 2.563-7.375l2 1v-5l-2 2c-1-5.75-1-5.75-1-8l-2 2-1-2 1-2-3.404.508c-4.739.589-9.363.525-14.127.37l-2.656-.07c-2.771-.077-5.542-.16-8.313-.245-1.89-.054-3.781-.107-5.672-.159-4.61-.128-9.219-.264-13.828-.404v2c-1.625.813-1.625.813-4 1-5.417-3.718-5.417-3.718-6.938-7.063-.07-2.186.407-3.812.938-5.937.098-2.673.042-5.324 0-8 0-3.404.135-5.807 2.163-8.604 2.648-2.012 4.614-1.752 7.911-1.724l3.693.014 3.92.064 3.962.033c9.142.105 18.243.414 27.351 1.217v-2l2.688.313c4.33-.41 5.474-2.16 8.312-5.313h2v-2h-2l2-7h-3v-2h2v-2l-4 1-.25-1.875c-.563-2.31-.563-2.31-2.813-3.375L1621 1041h2v-2h-3v2c-2.02.027-4.042.047-6.063.063l-3.41.035c-3.527-.098-3.527-.098-6.777-.598-4.915-.655-9.737-.606-14.688-.563l-2.939.014c-2.374.012-4.749.028-7.123.049v1c-3.833.03-7.667.047-11.5.063l-3.266.025c-5.847.018-11.453-.197-17.234-1.088v3c-3.947.18-6.598.094-10-2v3h-3l-1 1-3-1-1 2c-2-1-2-1-3-2l-1 3c-2.92 2.075-4.375 3-8 3a116.744 116.744 0 0 0-4 5l-2 1v3c-2.901 6.45-2.901 6.45-6 8-.652 2.025-.652 2.025-1 4h-3l1 3c-1.25 2.625-1.25 2.625-3 5l-3 1v3l-1.813.25c-2.784.955-3.62 2.321-5.187 4.75l-1-1-1.027 1.266c-2.84 2.497-6.13 3.918-9.535 5.484l-2.077.996c-1.757.818-3.557 1.543-5.361 2.254l-2-1-1 2c-2.528 1.733-4.835 2.946-7.75 3.906-3.469 1.168-6.734 2.573-10.063 4.094l-3.457 1.563c-2.83 1.15-2.83 1.15-3.73 3.437-1.666.043-3.334.04-5 0-1-1-1-1-1.114-2.95l.016-2.523.01-2.724.025-2.866.014-2.876c.012-2.354.028-4.707.049-7.061h2c-.14-2.459-.287-4.917-.438-7.375l-.119-2.117c-.186-3.882-.186-3.882-1.443-7.508l1.938-.313L1440 1072l1-3c2.602-1.648 3.862-2 7-2l1-2c2.937-2.01 4.392-3 8-3l1-2a68.787 68.787 0 0 1 3.75-2.313c2.702-1.626 4.953-3.211 7.125-5.5L1471 1050h2c2.187-1.77 2.187-1.77 4-4v-3c3-2.188 3-2.188 6-4l-1-2 4-2v-3a104.024 104.024 0 0 1 5-4c3.36-3.12 5.712-6.048 8-10 1.563-1.813 1.563-1.813 3-3h2v-2c1.885-2.13 3.366-2.935 6.2-3.227 6.227-.06 6.227-.06 8.8 1.227v-2l-2-1c2.576-2.576 3.573-2.253 7.152-2.259l3.256-.019 3.53.012 3.609-.005a1966.4 1966.4 0 0 1 7.565.01c3.872.011 7.743 0 11.615-.012 2.445 0 4.89.003 7.335.007l3.53-.012 3.256.02c.948 0 1.897.002 2.875.004C1573 1006 1573 1006 1575 1008c2.5.183 4.876.231 7.375.188l2.325-.018c8.972-.105 17.94-.495 26.903-.902l3.514-.147 3.144-.143c2.739.022 2.739.022 4.982.64l1.757.382 2-2c6.092.194 10.554 2.523 15.813 5.438l2.31 1.236c5.57 3.018 5.57 3.018 7.877 5.326l-.688 1.813L1652 1022a200.777 200.777 0 0 0 3.586 3.418c6.424 7.187 5.823 16.558 5.414 25.582v6l-2 1 .625 3.25c.363 3.626.359 4.833-1.625 7.75h2l.875 3.25c.951 3.585.951 3.585 2.313 6.063L1664 1080l-1 2 2 1c.414 2.066.414 2.066.625 4.563l.227 2.503.148 1.934h-2l.563 2.813C1665 1098 1665 1098 1664 1101h-2l.563 1.813C1663 1105 1663 1105 1662 1108h-2v2h2l-1 2-2-1v2h2v2h-3v2h2l-1 3-2-1 1 6h-2l1 8h-2l.563 2.813C1656 1139 1656 1139 1655 1142v3h-2l1 5h-2l2 4-3 1 1 4h-2v2h2v2h-3v2l2 1h-3v2h2l-1 2-1 3-1 2-.313 1.813c-.945 3.006-2.64 4.798-4.687 7.187-.918 1.103-1.835 2.207-2.75 3.313L1637 1190l-3-1-1 3c-4.333 3-4.333 3-7 3l-2 2v-2h-2l-1 3-1-2h-2l1 3-8-2v2a64.475 64.475 0 0 1-12.105 1.133l-3.483.004-3.6-.012-3.54.012c-20.158-.023-20.158-.023-22.272-2.137a168.29 168.29 0 0 0-7.316-.098l-2.216.005c-2.343.005-4.687.018-7.03.03-1.586.006-3.171.01-4.756.014-3.894.011-7.788.028-11.682.049v-2l-10 1v-2h-7v3h-3l-2 2-1-1-1.25 1.25-5.75 5.75-1-1-3 4-1-1-4 5-1-1-3 4-1-1-2 4h-3c-2.17 1.823-3.405 3.608-5 6h-3c-1.521 1.27-1.521 1.27-3 3l-4 4-1-1-2.313 2.313L1460 1239l-1-1c-1.733 1.65-3.14 3.205-4.5 5.188L1453 1245h-3c-1.521 1.27-1.521 1.27-3 3l-4 4-1-1-1.75 1.75-2.25 2.25-2.125 2.25C1434 1259 1434 1259 1432 1259c-1.825 1.587-3.13 3.188-4.5 5.188L1426 1266h-3c-1.521 1.27-1.521 1.27-3 3l-4 4-1-1-2 3h-3l-.25 1.875c-.75 2.125-.75 2.125-2.625 3.375-2.125.75-2.125.75-5.125.75l-.25 1.875c-.75 2.125-.75 2.125-2.625 3.313-1.693.647-3.406 1.239-5.125 1.812-1.685 1.997-1.685 1.997-3 4l-1-1-1.25 1.25-5.75 5.75-1-1-3 4-1-1-3 4-1-1-3 4-1-1-3 4-1-1-1.25 1.25-5.75 5.75-1-1-1.188 1.188L1350 1323l-1-1-1.813 1.813L1342 1329l-1.563 1.688C1339 1332 1339 1332 1337 1332a89.782 89.782 0 0 0-4 4l-6 6h-2l-1.938 3-2.062 3h-3c-1.354 1.544-1.354 1.544-2.5 3.5-1.219 1.969-1.219 1.969-2.5 3.5h-3c-2.702 2.425-4.959 4.947-7.188 7.813L1301 1365h-2v2l-1.805.27c-4.06 1.35-6.019 5.216-8.195 8.73-1.38 3.292-1.38 3.292-2 6l-3-1 1 41 2 1c.027 2.896.047 5.792.063 8.688l.025 2.474c.017 4.116-.187 7.808-1.088 11.838a311.488 311.488 0 0 0-.563 7.313l-.253 3.8L1285 1460h2l-.016 3.38c-.018 4.125-.03 8.249-.039 12.373-.005 1.788-.012 3.576-.02 5.363-.013 2.565-.018 5.129-.023 7.693l-.015 2.436c0 1.919.051 3.837.113 5.755l1 1c.39 7.058-.068 14.006-1 21h2c-.01.615-.02 1.23-.032 1.864-.041 2.795-.067 5.59-.093 8.386-.017.968-.034 1.936-.05 2.934l-.02 2.832-.032 2.602c.085 2.406.085 2.406 1.254 4.437 1.162 2.322 1.078 3.507.73 6.054l-.292 2.286-.34 2.355-.316 2.402c-.259 1.951-.533 3.9-.809 5.848h2c.115 7.41-.088 14.642-1 22h2l-.035 3.246-.027 4.191-.026 2.143c-.009 1.807.036 3.614.088 5.42l1 1c-.09 2.19-.247 4.378-.438 6.563l-.308 3.628L1292 1612h2c1.158 4.054.837 6.218-1 10h2l-1 8h2l-1 6h2l-1 6h2l-1 5h2l-1 4h2l1 5h2l.375 2.75c.748 3.888 1.414 6.206 4.438 8.813L1310 1669l2.313 1.563c7.437 3.978 15.43 4.58 23.687 4.437v2l12-1v2l8-1v2l6-1v2l4-1v2l1.71-.598c6.808-1.196 14.672 4.848 20.161 8.328 2.19 1.41 2.19 1.41 5.129 2.27l.938 2 1.062 2c1.946.59 1.946.59 4 1 2.004 1.558 2.874 2.443 3.438 4.938.77 2.827 2.481 4.044 4.562 6.062l2 4 1.836 1.7c2.593 2.756 4.159 5.74 5.789 9.112l.906 1.792c2.01 4.076 3.46 7.983 4.469 12.396l-1 2 2 1-1 3h2l-1 4h2l-.063 2.25c-.05 2.664-.05 2.664.626 4.813.517 2.293.149 3.723-.563 5.937h2c.029 3.917.047 7.833.063 11.75l.025 3.367.01 3.242.016 2.984c-.103 2.4-.494 4.353-1.114 6.657v3h-2v2h2c-.488 6.055-.488 6.055-1 8-3.314 2.21-4.345 2.225-8.188 2.125l-2.73-.055-2.082-.07v1c-6.201.972-11.936.938-18.188.563-11.274-.583-22.526-.652-33.812-.626l-2.555.006c-4.815.012-9.63.032-14.445.057v1c-16.246.023-32.492.041-48.738.052-7.544.005-15.087.012-22.63.023-6.573.01-13.147.017-19.72.02-3.482 0-6.964.003-10.445.01-3.884.009-7.768.009-11.652.009l-3.51.01-3.199-.004-2.785.003C1218 1804 1218 1804 1215 1803c-1.957-.158-1.957-.158-4-.125l-2.063-.008c-2.156.067-2.156.067-4.937 1.133l-2-1v-2l-3 2c-6.765-.59-13.594-5-18-10.063-2.961-4.349-4.443-7.623-4-12.937l1-1-2-2c0-2.244.245-4.396.5-6.625l.281-2.477.219-1.898h-2c-1.045-4.751-.83-8.585-.063-13.375l.59-3.773.473-2.852h-2c-.027-2.23-.046-4.458-.063-6.688l-.035-3.761c.083-3.013.39-5.634 1.098-8.551h-2l1-7h-2c-1-2-1-2-1.75-4-1.09-2.198-1.09-2.198-3.473-2.824-3.457-1.464-5.692-3.466-8.465-5.988l-2.886-2.583c-2.378-2.554-3.276-4.376-4.426-7.605-2.289-1.574-2.289-1.574-5-3-6.086-4.017-7.445-7.974-9-15l2-1v-2h-2l1-4h-2v-20h2l-1-6h2l-1-5h2l-1-5h2l-1-5h2l-1-6h2l-1-3c-.04-2.333-.044-4.667 0-7h2l-1-5h-1c-1.335-5.34-.513-8.84 1-14l-3-1 2-6h-2l1-6h-2c-1.125-6.75-1.125-6.75 0-9h-2l1-4h-2l1-4h-2l1-4h-2l1-4h-2l-.438-2.813c-.483-3.194-.483-3.194-1.562-6.187l1-2h-2l1-4-3-1c0-4 0-4 1-6h-2l-.438-2.875c-.391-3.018-.391-3.018-1.562-5.125l1-2h-2l-.438-2.875c-.391-3.018-.391-3.018-1.562-5.125l1-2h-2c-1.125-4.75-1.125-4.75 0-7l-3-1h2v-2l-2-1 1-2-3-1v-4l-2-2v-4a89.261 89.261 0 0 0-2-4v-2l-2-2v-4a125.84 125.84 0 0 0-2-6h-2v-2h2v-2l-2-1 1-2-4-2 1-2-2-2v-3l-2-2 1-1-4-4 1-3-1.438-1.25c-1.761-1.973-1.933-3.234-2.562-5.75l-1.563-1.563L1091 1438v-3l-2-1 1-4-1.875-1.25c-2.193-1.806-3.053-3.16-4.125-5.75l1-1-4-3 1-2-2.125 1c-3.135 1.09-5.58 1.153-8.875 1v-3l-12 2-1-3-9 1v-2l-9 2-1-2-3.25.625c-3.845.384-4.579.125-7.75-1.625-2.197.298-2.197.298-4 1l-1-2-3.438.563-3.562.437-1-1c-2.767-.655-5.146-1-8-1h-3l-1-2-4 1-1-2-3 1v-3l-2.875.5c-2.851.456-5.245.5-8.125.5l-1-1c-2.631-1.053-2.631-1.053-4-1h-3l-1-2-3 1-1-2c-2.484-.828-4.352-1-7-1l-3-1v-2l-1.563.625c-3.47.534-6.143-.548-9.437-1.625v-2l-1.813.5c-2.187.5-2.187.5-5.187.5v-3l-4 1v-2l-4 2-1-2-2 1v-3l-4 2v-3l-1.813.5c-2.187.5-2.187.5-5.187.5v-3l-1.813.563C917 1388 917 1388 914 1387v-2l-1.813.5c-2.187.5-2.187.5-5.187.5l-1-2h-4l-1-3-1.625.625c-3.208.506-5.388-.471-8.375-1.625v-2l-1.813.563C887 1379 887 1379 884 1378v-2h-2v2l-2-1 1-2-4 1v-2l-4 2-1-2h-2v-2l-4 2v-3l-4 1v-2l-4 1v-2l-1.75.5c-2.25.5-2.25.5-6.25.5v-2h-4v-2l-5 1v-2l-4 1v-2l-5 2v-3l-5 1v-2l-6 2-1-3-1.813 1c-2.187 1-2.187 1-5.187 1v-2l-7 1v-3l-10 1v-2l-3.2.988c-5.829 1.455-11.64 1.265-17.612 1.2l-3.428-.002c-8.337-.045-8.337-.045-11.76-1.186v2c-3.947.18-6.598.094-10-2v3c-1.435.223-2.873.428-4.313.625l-2.425.352C741 1363 741 1363 738 1361v3l-3 .313c-3.578.504-6.684 1.597-10.027 2.937-1.973.75-1.973.75-5.535 1.688-2.75.85-4.587 1.628-7 3.062-3.438 2-3.438 2-6.438 2.938-3.367 1.192-5.689 2.86-8.484 5.039C696 1381 696 1381 694 1381l-1 3-1 1a374.43 374.43 0 0 0-2.313 3.813c-1.512 2.46-2.79 4.286-4.875 6.312-2.311 2.392-2.947 4.703-3.812 7.875h-2l-1 3-2 2-1 2c-1 2-1 2-3 4a59.16 59.16 0 0 0-4.563 6.625C666 1423 666 1423 664 1425v2l-3 2a115.083 115.083 0 0 0-5.438 7c-1.562 2-1.562 2-4.187 4.5-2.498 2.193-2.498 2.193-2.813 4.563-.927 3.193-3.87 4.178-6.562 5.937a225.36 225.36 0 0 0-2 4c-1.505 1.625-1.505 1.625-3.273 3.215l-1.984 1.811-2.118 1.911a268.168 268.168 0 0 0-18.172 18.356c-4.304 4.75-4.304 4.75-6.453 6.707h-2l-1.375 2.438c-1.93 3.043-2.369 2.748-5.625 3.562-1.771 2.48-1.771 2.48-3 5l-2-1-.75 1.875c-1.986 3.375-4.644 3.923-8.25 5.125-1.429 1.401-1.429 1.401-2.688 3.063L580 1510l-2-1-5 6-2-1-2.125 2.313c-2.871 2.684-5.312 4.095-8.875 5.687-2.306 1.054-3.8 1.793-5.563 3.625C553 1527 553 1527 550 1527l-1 3c-2.688 1.5-2.688 1.5-6 3-4.253 1.696-4.253 1.696-7 5-1.672.746-1.672.746-3.75 1.438-4.34 1.54-7.96 3.272-11.25 6.562a155.915 155.915 0 0 1-5 2c-2.269 1-3.778 1.769-5.5 3.563-1.784 1.71-3.137 1.886-5.5 2.437l-1 2c-1.66.681-3.328 1.347-5 2l-2 2-4 2-2 2-1-1c-1.713 1.631-3.107 3.158-4.438 5.125C484 1570 484 1570 482.137 1570.406c-2.71.753-3.922 1.98-5.887 3.969l-1.86 1.836c-1.697 1.806-1.697 1.806-1.39 4.789l-5 3v3l-2 1v2l-2 2-.875 1.75c-2.123 4.245-4.149 7.6-8.125 10.25-.36 1.661-.69 3.329-1 5-2.477 4.738-2.477 4.738-5 6v3l-2 1 1 2-1.938 2.75c-1.726 2.72-2.393 4.242-3.062 7.25l-2 1v3c-1.048 2.902-2.304 5.682-3.563 8.5-1.194 2.907-1.97 5.413-2.437 8.5l-3-1v2h2c-3.587 16.484-3.587 16.484-6 22h2v2l1.898-.254 2.477-.309 2.46-.316C439 1676 439 1676 441 1677v2l14-1v2l8-1v2l5-1v2l3-1c5.926 1.662 11 4.5 16 8h2l2 3c2.61 2.827 4.992 4.995 8.25 7.063 2.75 1.937 2.75 1.937 3.438 4L503 1705c.979 1.021 1.98 2.02 3 3l2 4 1.625 1.563C511 1715 511 1715 511 1718l2 1c3.366 5.027 5.559 10.124 7 16l1.188 3.313C522 1741 522 1741 521 1743h2l-1 4 3 1-2 5h2l-.035 3.027-.028 3.91-.035 3.903c-.267 3.023-.267 3.023 1.098 4.16a63.78 63.78 0 0 1 .125 4.438l.008 2.433C526 1777 526 1777 525 1779c-.07 2.04-.084 4.083-.063 6.125l.028 3.32L525 1791h-2l2 4-2 1 1 3c-2.076 3.767-3.763 6.716-8 8-2.75.125-2.75.125-5 0v-1h-13v1c-18.754 1.135-37.492 1.164-56.272 1.167-2.611.001-5.223.003-7.834.006-9.126.009-18.25.013-27.376.012-8.493 0-16.985.01-25.478.026-7.323.013-14.647.018-21.97.018-4.362 0-8.723.002-13.085.013-4.081.01-8.162.01-12.243.003-1.5-.002-2.998 0-4.497.007-2.039.008-4.078.002-6.116-.005l-3.461.002C317 1808 317 1808 315 1806a91.355 91.355 0 0 0-5 .5c-3.909.087-5.594-.218-8.844-2.473-4.594-4.48-8.523-8.745-10.156-15.027.265-2.454.903-3.806 2-6h-2v-18h2l-.5-2.086c-.555-3.236-.5-6.256-.5-9.539-.593-10.242-5.284-18.448-10-27.375a592.67 592.67 0 0 1-2.23-4.316l-.962-1.862c-.877-1.979-1.517-3.672-1.808-5.822l2-3h-2v-14h2l-.625-1.75c-.467-2.805.286-3.808 1.625-6.25v-3c1.032-3.096 1.773-3.808 4-6 1.572-2.554 2.857-5.251 4.188-7.938l1.115-2.17 1.052-2.107.958-1.91c.916-2.168.916-2.168.687-5.875 1.5-1.75 1.5-1.75 3-3l-1-2 2-1c.685-1.888.685-1.888 1.125-4.063l.508-2.222L298 1646h2v-2l-2-1 2-2-1-2h3l-1-4h2v-3l-2-1 3-1-1-4h2l-1-5h2l-.5-2.25c-.583-3.204-.993-5.765.5-8.75h2l-1-5h2l-1-6h2l-.563-2.813C309 1593 309 1593 310 1590c.22-1.725.405-3.455.563-5.188l.253-2.73L311 1580h2l-1-6h2l-1-7h2l-1-6h2l-1-7h2l-1-6h2l-1-7h2l-2-5 3-1-1-5h2l-1-5h2l-.563-1.688c-.707-3.738.378-6.758 1.563-10.312l6-4a523.49 523.49 0 0 0 4-5c2.684-1.708 3.762-2 7-2v-2h3l1-2 4-2c1.972-1.726 3.372-3.504 4.938-5.625 2.107-2.427 2.943-3.04 6.062-3.375l.125-1.75c1.316-3.383 3.84-4.442 6.875-6.25l-1-2 4-2-1-2 2-2 1-2c1-2 1-2 3-4 6.585-8.731 6.585-8.731 9-19l4-2v-2l-2-1 2-1-1-2 2-1-1-2 2-1-1-2h3v-2l-2-1 2-4h2l-1-4h2l-1-4h2l-1-4h2l-1-4h2v-3l-2-1 3-1-1-5h2l-1-5h2l-1-7h2l-2-4 3-1-1-7h2l-.563-2.688c-.424-3.215-.173-5.204.563-8.312v-4h2l-2-6 3-1-1-9h2l-1-9h2l-.254-2.012c-.532-4.615-.85-8.433.254-12.988l-1-3 1-3h2l-1-10h2l-1-8h2l-1-8h2l-2-5 3-1-1-7h2l-1-6h2l-1-6h2l-2-4 3-1-1-4h2l-.563-2.25c-.429-2.7-.288-4.196.563-6.75h2l-2-4h3l-.563-1.813C421 1237 421 1237 422 1234h2l-2-4h3v-2l-2-1 2-1-1-2 2-1-1-2 2-1-1-2 4-2v-2l-2-1 2-1v-4l1.438-1.375c1.841-1.603 1.841-1.603 2-4.5.671-3.732 2.19-5.234 4.562-8.125a75.316 75.316 0 0 0 1-5l2-2v-2h2l.313-2.313c.762-2.978 1.538-3.624 3.687-5.687.681-1.66 1.347-3.328 2-5a125.01 125.01 0 0 1 3-4l1.563-2.625C455 1163 455 1163 457 1161a402.401 402.401 0 0 0 3-6l2-3h2l.688-2.125c1.143-2.506 2.112-3.963 3.875-6 2.58-2.681 2.58-2.681 3.437-5.875l-10-3v3h-4v-2h-2l1 3h-4v-2h-2l1 3c-7.75 1-7.75 1-10 1-2.85.702-2.85.702-4 2a88.028 88.028 0 0 1-4.5 1.125l-2.469.57L429 1145l-1-1-2 2v-2h-2l1 3-3.813.313c-3.565.436-4.753 1.041-7.187 3.687-2.33.678-4.664 1.344-7 2a70.29 70.29 0 0 0-4 3h-2l-1 2c-2.563.625-2.563.625-5 1l-1 3-6 2c-2.125 1.791-2.125 1.791-4 4l-10 10-2.438 2.5a67.855 67.855 0 0 1-5.812 5.063c-2.766 2.451-3.142 3.033-3.75 6.437l-3 1v3l-3 1v3l-2 1-.813 2.688c-1.065 2.971-1.749 4.178-3.75 6.437-2.288 2.7-2.765 3.625-3.437 6.875l-3 3v3h-3l1 3c-.813 1.973-.813 1.973-2 4.063-1.19 2.021-1.19 2.021-2 3.937l1 2-3 3 1 3-4 2v2l2 1-2 4h-2v2h2l-1 2-1 3h-2l1 4h-2l1 4h-2l2 4-3 1v2l2 1-3 1 .563 2.313C325 1280 325 1280 324 1283v3h-2l1 6h-2l1 5h-2l1 7h-2l1 6h-2l1 7h-2l1 7h-2l1 8h-2l.563 3.25c.382 3.275.37 4.745-.563 7.75v4h-2l.563 3.188c.395 3.447.239 5.515-.563 8.812v4h-2l1 9h-2l1 8h-2l1 8h-2l1 9h-2l1 7h-2l1 7h-2l1 7h-2l1 8h-2l.563 2.75c.404 3.004.307 4.447-.563 7.25v3h-2l1 6h-2l1 6h-2l1 5h-2l.563 2.188c.457 2.94.172 4.953-.563 7.812h-2l1 5h-2l1 4h-2v2h2l-1 3-2-1 1 4h-2v2h2l-1 3-2-1v2l2 1-3 1v2h2v2l-2 1v4l-1 2-2-1v2l2 1h-3v2h2l-.938 2.75c-.79 2.416-1.491 4.778-2.062 7.25h-3v2h2l-1 2-1 3-2 5-1 3-2 1 1 2-2 2c-1.273 2.322-2.159 4.476-3 7l-2 .875c-2.264.964-2.264.964-2.688 3.563L268 1550c-1.14 3.417-2.41 4.557-5 7l-2.25 2.25L259 1561l1 2-1.625 1.063c-2.568 2.094-4.531 4.35-6.648 6.886-3.161 3.755-6.457 7.391-9.727 11.051l-2-1-1.137 1.46c-3.027 3.737-5.14 6.097-9.863 7.54l-2 2-1-1-1.625 1.813c-3.7 3.407-7.567 4.985-12.375 6.187l-2 2-1-1-2 2-1 1h-2v-2h-2l-1 3-1-1-2 2-3-2-1 3-1-2-2 3c-2.169-.506-4-1-6-2l-1 3-7-1v1h-16v-2l-3.25 1.125c-4.02.938-4.44.815-7.75-1.125-2.197.298-2.197.298-4 1l1-3h-2v2c-5.277-.539-9.256-1.773-14-4v-3h2l-1-5h2l-.5-1.813C133 1590 133 1590 133 1587l2-1v-3l1-3h2l-1-4h2l-1-4h2l-.625-1.625c-.506-3.208.471-5.388 1.625-8.375h2v-2c5.75-1.125 5.75-1.125 8 0v3l5-1v2l2.313-1.063C161 1562 161 1562 164 1563h-2v2l1.578-.496c3.098-.645 6.01-.598 9.172-.566l3.547.027L179 1564l-1-2 2.875.625L184 1563l2-2 2 1 1-2 2.125.188c7.054-.46 14.94-6.253 19.875-11.188l1 1 1.32-1.828c5.464-7.332 5.464-7.332 9.118-9.547L225 1537v-3l2-2 .938-1.938C229 1528 229 1528 230.563 1526.5c1.7-1.775 2.025-3.11 2.437-5.5h2l.813-2.813c1.098-2.95 1.811-4.243 4.187-6.187l-2-1 1.5-1.25c1.934-1.872 1.934-1.872 1.5-5.75l2-1-1-2 2-1c.652-2.025.652-2.025 1-4h2v-2l-2-1h3l-.563-1.813C247 1489 247 1489 248 1486h2v-2l-2-1 2-4h2l-1-4h2l-2-4 3-1-1-4h2l-1-4h2l-1-5h2l-1-5h2l-1-5h2l-1-6h2l-1-6h2l-1-5h2l-1-7h2l-.563-2.75c-.404-3.004-.307-4.447.563-7.25v-3h2l-1-7h2l-1-8h2l-1-8h2l-1-8h2l-.563-3.688c-.428-3.38-.247-5.983.563-9.312a98.487 98.487 0 0 0 0-5h2l-1-9h2l-1-9h2l-1-8h2l-1-9h2l-1-7h2l-1-7h2l-.563-3.313C276 1305 276 1305 277 1302v-4h2l-1-6h2l-1-6h2l-1-5h2l-1-5h2l-2-5 3-1-1-4h2l-.625-2.375L284 1261l2-2-2-1 3-1-1-4h2v-2l-2-1 2-2-1-2h3l-.5-1.813C289 1242 289 1242 289 1239h3l-.613-1.676c-.505-3.033.247-4.693 1.425-7.512l1.083-2.667C295 1225 295 1225 297 1224v-2l-2-1 2-1c1.375-2.903 2-4.761 2-8 .65-1.342 1.317-2.675 2-4l.438-2.063c.562-1.937.562-1.937 1.964-3.28 1.843-1.911 2.68-3.66 3.723-6.094l1.008-2.31c.798-2.073 1.383-4.087 1.867-6.253h2l.375-2.375C313 1183 313 1183 315 1181l1-2c1.17-2.34 2.717-3.739 4.625-5.5 1.6-1.407 1.6-1.407 1.375-3.5l4-2-1-2 5-3-1-2 3-1.813 3-2.187v-3c1.906-1.691 1.906-1.691 4.5-3.563 4.819-3.67 8.276-7.634 11.809-12.53L353 1136h3l.75-1.875c1.986-3.375 4.644-3.923 8.25-5.125l1.875-2.438c2.366-2.853 3.747-3.257 7.125-4.562a93.385 93.385 0 0 0 4.188-2.813c5.917-4.036 12.205-7.133 18.812-9.874 3.046-1.116 3.046-1.116 5-3.313a256.638 256.638 0 0 1 7-2l2.813-1.188L414 1102l2 1 1-2c3.61-1.703 7.104-3.134 11-4l2-1v2h2v-2h3l1-2c1.855 0 3.71.035 5.563.125 2.62.138 2.62.138 4.437-2.125h8l-1-2 6.055.977L461 1091l2-2c3.625.375 3.625.375 7 1v-1h11v-2l12 1-2-2a75.56 75.56 0 0 1 14 1l-1-2c10.558.964 10.558.964 15 2v-2c4.517-1.369 7.588-.47 12 1v-3c5.75.875 5.75.875 8 2v-2l-3-1c2.915-.81 4.461-1.218 7.313-.063L545 1083l-1-2 7 1-1-2 6 1v-2h3l3-1 2 1 2-2 4 2-1-3 4 1 1-2h3l3-1 1 1 2-2 4 2v-2h3v-2l5 2-1-3 2.375.625L599 1071l2-2h3l3-2 3 2v-2c1.436-.196 2.874-.381 4.313-.563l2.425-.316C619 1066 619 1066 622 1067v-2l7 1v-1h7l-1-2 10 1-2-2c1.434-.25 2.873-.474 4.313-.688l2.425-.386c2.262.074 2.262.074 4.055 1.554L655 1064l3-2 1 3 1.938.938c2.517 1.296 3.03 2.484 4.062 5.062h2l.918 2.012c2.461 5.188 4.69 9.16 9.082 12.988a89.165 89.165 0 0 1 4 4v2c1.71 1.602 3.533 3.013 5.371 4.465C688 1098 688 1098 689 1101l-2 3c-1.848.258-1.848.258-4.063.125-4.086-.145-7.94.133-11.992.656C669 1105 669 1105 666 1105c-1.608.335-3.212.691-4.813 1.063-4.034.844-7.138 1.003-11.187-.063v2c-1.666.043-3.334.04-5 0l-1-1-1.75 1.125c-2.25.875-2.25.875-4.5 0L636 1107v3h-4v-2l-2 1v2h-4v-2l-2 1v2c-7.625 1-7.625 1-11 1-2.77.471-2.77.471-5 2h-3v-2h-2v2l-4-1v3h-2v-2h-2l-1 3a88.406 88.406 0 0 1-5 1l-1-1-1.688 1.438c-2.504 1.692-4.363 2.084-7.312 2.562l-1 1-3-1v2l-2.625.813c-3.3 1.16-6.263 2.598-9.375 4.187l-2.379.945c-9.067 3.649-17.535 8.606-25.621 14.055l-2.688 1.563c-2.109 1.31-3.654 2.605-5.312 4.437l-1-1-4 6-2-1-1.023 1.531-1.352 1.969-1.336 1.969L515 1161h-2v2h-2v2h-2l-.688 1.813C507 1169 507 1169 504.375 1170.563L502 1172v3l-4 2 1 2-5 3 1 2-3 1 1 2-2 2a158.672 158.672 0 0 0-2 4c-.754 1.26-1.526 2.51-2.313 3.75a560.636 560.636 0 0 0-4.054 6.477l-1.32 2.148-1.2 1.96C479 1209 479 1209 477 1211c-.989 2.8-.989 2.8-1.438 4.938-.608 2.23-1.393 4.068-2.562 6.062l-2 1v3l-2 2v3l-3 1v2l2 1h-3l1 3h-2l2 4-2 3h-2v2h2l-1 2-1 3h-2l2 5-3-1 1 4h-2l2 5h-3l.563 1.813C458 1269 458 1269 457 1272v3h-2l1 6h-2l1 6h-2l1 7h-2l1 8h-2l1 7h-2l1 8h-2l1.125 2.75c.875 3.25.875 3.25-.063 5.094-1.363 2.766-1.26 4.84-1.187 7.906l.055 2.984.07 2.266h-2l1 10h-2l.254 1.793c.564 4.377.825 7.89-.254 12.207-.283 2.216-.513 4.435-.746 6.656-.241 2.224-.523 4.439-.817 6.657-.516 3.73-.516 3.73-.437 7.687h-2l1 7h-2l.563 2.75c.404 3.004.307 4.447-.563 7.25v3h-2l1 5h-2l2 4-3 1 1 4h-2l2 6-3-1 1 4h-2v2h2v2l-2 1v2h-2l.625 1.625c.506 3.208-.471 5.388-1.625 8.375h-2l1 3h-2l.688 1.563c.477 3.725-1.075 6.082-2.688 9.437h-2v2l2 1-1.438 1.125c-2.08 2.498-2.044 4.7-2.562 7.875a83.257 83.257 0 0 1-3 4 139.595 139.595 0 0 0-1 4l-2 2v2h-3v5l-2 1v2l-4 4a177.118 177.118 0 0 0-2 4l-2 1 1 2-2.5 1.313L399 1503v3l-2.188 1.188c-3.427 2.209-4.627 4.524-6.503 8.07-1.645 2.189-2.705 2.16-5.309 2.742-1.46 1.383-1.46 1.383-2.625 3.063L380 1524h-2l-1.375 2.438L375 1529l-1.844.363c-3.15.93-4.287 2.825-6.281 5.387l-2.07 2.61c-1.71 2.501-2.81 4.79-3.805 7.64h-3v2l2 1-3 1v2h2v2h-3l.625 2.313C357 1558 357 1558 355 1561l2 1-1 2h-2v3l2 1-1 2h-2l2 4-3 1 1 6h-2l.563 2.313C352 1586 352 1586 351 1589v3h-2l.563 2.313C350 1597 350 1597 349 1600v3h-2l.563 2.313C348 1608 348 1608 347 1611v3h-2l1 4h-2l1 5h-2l1 5h-2l1 5h-2l1 4h-2l1 5h-2l1 4h-2l1 4h-2l1 4h-2l.563 1.813C337 1658 337 1658 336 1661h-2v2l2 1-3 4 1 2-1.313 1.063c-2.85 3.273-4.065 7.33-5.617 11.34-1.097 2.662-2.355 5.204-3.632 7.784-2.893 6.288-3.438 11.979-3.438 18.813 1.369 2.55 1.369 2.55 3.188 5.25l1.917 2.953c1.573 2.322 3.201 4.564 4.895 6.797l2 3-1 3h2c1.22 6.1.957 11.855 0 18l-1 1c-.1 1.602-.13 3.208-.125 4.813l-.008 2.644c.122 2.339.532 4.292 1.133 6.543l2.07.013c16.67.103 33.34.212 50.01.326 8.062.055 16.124.109 24.186.158 7.032.043 14.065.09 21.097.14 3.719.026 7.437.051 11.155.072 4.167.024 8.333.054 12.5.086l3.673.017c8.136.07 16.2.52 24.309 1.188v-2h2l1-6-3-1c0-2 0-2 1-3-.776-3.075-.776-3.075-3-5l2-3-1.875-.125C478 1744 478 1744 476.75 1741.187 476 1738 476 1738 476 1734l-4-2v-3l-2-2h-4l-1-3c-3.596-2.125-6.872-3.393-11-4v-2h-2v2h-3v-3l-3.75 1c-5.748 1.302-11.387 1.179-17.25 1v-3l-1.898.473-2.477.59-2.46.597C419 1718 419 1718 417 1717v-2l-5 2v-3h-2v2c-7.917-.9-14.356-5.041-19.625-10.938-1.7-3.787-1.963-6.94-2.375-11.062l-2-2h2v-2h-2l1-4h-2v-16h2l-2-5h3l-1-4h2l-.5-1.813C388 1657 388 1657 388 1654h3v-2l-2-1h3v-2l-2-1h3l-1-6 2-1-1-2 2-1-1-2 2-1c1.247-2.41 1.247-2.41 2-5l-1-2 1.5-1.313c1.832-1.684 1.832-1.684 1.5-4.687l3-4v-3l1.5-1.938c1.892-2.176 1.892-2.176 1.5-6.062l1.438-1.375c1.852-1.62 1.852-1.62 2.062-4.625.567-3.404 1.15-3.709 3.5-6 1.096-1.841 1.096-1.841 2.008-3.871l1.05-2.24 1.067-2.326 1.09-2.315c1.939-4.078 1.939-4.078 3.269-8.373C422 1574 422 1574 424 1572l1-2.5c1.09-2.723 2.392-3.965 4.563-5.875 1.595-1.546 1.595-1.546 1.937-3.75l.5-1.875 3-1v-3l4-2-1-2c4.75-4 4.75-4 7-4v-2h2v-2h2l.875-1.875C451 1538 451 1538 453 1536h2c2.122-1.856 3.413-3.62 5-6l5-2a116.36 116.36 0 0 0 5.352-3.977C472 1523 472 1523 475 1523l1-2c14.452-11 14.452-11 21-11l1-2a80.913 80.913 0 0 1 4.5-2.813l2.758-1.617a533.727 533.727 0 0 1 9.305-5.203c4-2.243 7.913-4.635 11.835-7.012C529 1490 529 1490 532 1490l1-2a101.421 101.421 0 0 1 4.563-3.313l2.722-1.874c2.997-2.001 6.033-3.916 9.121-5.77 1.764-1.077 1.764-1.077 3.594-3.043l1 1 1.25-1.25L557 1472l1.938-2.063c1.994-1.873 3.647-2.73 6.062-3.937l2.125-2.125L569 1462h2l1.938-3 2.062-3h3c1.58-1.773 1.58-1.773 3-4 1.5-2.25 1.5-2.25 3-4h3c1.806-1.341 1.806-1.341 3.574-3.176l2.022-2.01 2.091-2.127 2.127-2.091 2.01-2.022 1.847-1.856c1.635-1.751 1.635-1.751 1.329-4.718h2v-2c1.75-1.508 1.75-1.508 4-3.125l2.25-1.633L612 1422l-1-2h2v-2l2.5-1.438L618 1415v-3c2.313-2 2.313-2 5-4 1.794-1.458 1.794-1.458 3-3v-3c1.636-1.37 3.307-2.7 5-4 1.637-1.96 1.637-1.96 3-4l1.625-2c1.482-1.886 1.482-1.886 1.813-4 .777-2.763 2.532-4.035 4.562-6v-2l2-2 .938-2c1.062-2 1.062-2 4.062-4v-3h2l.25-2.25c.75-2.75.75-2.75 2.563-4.438 3.322-3.512 4.572-7.81 6.187-12.312h2c.988-2.37 1.919-4.605 2.438-7.125.562-1.875.562-1.875 1.933-3.191 4.538-4.69 6.835-11.331 7.629-17.684l2-2v-2l1.5-1.438c1.846-1.562 1.846-1.562 1.5-4.562l1.5-1.938c1.892-2.176 1.892-2.176 1.5-6.062.98-1.02 1.979-2.021 3-3v-3a88.982 88.982 0 0 1 2-4c1.526-3.388 1.526-3.388 2-7l2-1c1.494-4.41 1.494-4.41 2-9l2-1a125.84 125.84 0 0 0 2-6c.875-2.813.875-2.813 2-5 1.938-.625 1.938-.625 4-1l1.25-1.5c2.78-2.383 6.162-2.471 9.75-2.5l3 1v-2c3.083-.058 6.166-.094 9.25-.125.873-.017 1.745-.034 2.645-.05l2.558-.02 2.349-.032c2.5.258 4.072.899 6.198 2.227 1.25 2.125 1.25 2.125 2 4h-3v2h2v2h-3v2l2 1-.914 1.738c-1.025 2.136-1.761 4.19-2.461 6.45A84.706 84.706 0 0 1 733 1289.5c-1.716 3.753-3.098 7.53-4.348 11.46a99.81 99.81 0 0 1-1.715 4.852c-1.462 4.972-2.159 10.07-2.937 15.188 2.543-1.017 5.086-2.035 7.625-3.063 3.907-1.085 7.638-1.41 11.672-1.718 3.265-.264 6.467-.716 9.703-1.219v2l4 1v-2l8 1v-3l13 1v-1h14v1h14v2l9-1v2l6-1v2l3.25-.563c3.154-.367 4.848-.482 7.75.563v2l5-1v2l2.25-.563c2.7-.429 4.196-.288 6.75.563v2l4-1v2l4-1v2h2l1-2 2 2c2.329.365 4.663.694 7 1 2.363.59 4.67 1.287 7 2v2l1.563-.625c3.47-.534 6.143.548 9.437 1.625v2h2l1-2 2 2c1.988.398 3.99.738 6 1v2l1.75-.625c2.845-.474 3.736.294 6.25 1.625 1.994.366 3.995.701 6 1l3 1v2l3-1v2l1.75-.625c2.85-.475 3.707.33 6.25 1.625 1.698.494 3.408.95 5.125 1.375 3.866 1.012 7.5 2.21 11.188 3.75C943.91 1351.037 948 1352 953 1352v3l1.813-.563C957 1354 957 1354 960 1355v2l1.813-.5c2.187-.5 2.187-.5 5.187-.5v3l1.688-.625c2.967-.481 4.585.477 7.312 1.625l2-1v3h2l1-2 2 2c2.323.4 4.657.74 7 1v2l4-1v2h2l1-2 1 3 5-1v2l5-1v2l2.813-.5c5.47-.858 5.47-.858 8.187.5v2l7-1v2l9-1v2l9-1v2l2.188-1.063c3.124-1.041 4.694-.828 7.812.063v2l3.188-1c3.2-.84 5.553-1.198 8.812-1l1 2c2.527.656 2.527.656 5 1-.03-1.918-.03-1.918-.063-3.875-.062-3.875-.062-3.875 1.063-6.125h-2l1-5h-2l1-4-2-1 1-2-2-1 1-2-4-1v-4a101.46 101.46 0 0 0-3-3c-1.184-2.63-2.088-5.264-3-8l-1.332-1.316c-2.269-2.29-3.72-4.848-5.355-7.621l-1.887-3.153C1049 1320 1049 1320 1049 1316c-1.936-2.054-1.936-2.054-4.25-3.563-3.064-2.715-4.947-5.494-7.129-8.93-2.255-3.488-4.732-6.809-7.203-10.148-1.515-2.521-1.98-4.472-2.418-7.359-.882-2.882-.882-2.882-2-5h2v-3h-2c.302-3.528 1.03-5.038 3.25-7.875 2.75-2.125 2.75-2.125 5.563-1.938l2.187.813v-2h7v2l1.758-.324c5.375-.825 8.52-.786 13.242 2.324l2 2 2 .875c2.481 1.396 2.806 2.587 4 5.125 2.224 2.44 4.239 4.16 7 6v3l4 2v3c1.333 1.5 1.333 1.5 3 3 1.02 1.318 2.02 2.652 3 4 1.716 2.34 3.475 4.55 5.375 6.75 7.625 9.108 7.625 9.108 7.625 14.25l2 1c6.466 8.485 11.219 19.76 14 30l-1 2h2l-1 4h2l-1 6h2c1.255 3.766.37 5.372-1 9h2c.978 5.453.973 10.425.563 15.938l-.159 2.36c-.128 1.902-.265 3.802-.404 5.702h-2v4l3-1-1 5 2 1v3a90.576 90.576 0 0 0 4 4l1 2 3 1 .438 1.813c.754 2.932 2.413 4.103 4.562 6.187a88.982 88.982 0 0 1 2 4l2 2c4.09 5.588 7.792 12.099 9 19l-1 2 2 1-1 2 2 1-1 2h2c.363 1.29.715 2.582 1.063 3.875l.597 2.18c.34 1.945.34 1.945-.66 3.945h2c.363 1.29.715 2.582 1.063 3.875l.597 2.18c.34 1.945.34 1.945-.66 3.945h2l-1 4 2 1-1 2h2l-1 4 2 1-1 2h2l-1 4 2 1-1 2h2c1.125 4.75 1.125 4.75 0 7h2l-1 4 2 1-1 2h2l-1 4 2 1-1 2h2l-1 4h2l-1 4h2l-1 4 2 1-1 2h2l-1 4h2l-1 4h2l-1 4h2l-1 4h2c1.125 5.75 1.125 5.75 0 8h2l-1 4h2l-1 4h2l-1 5h2l-1 5h2l-1 6h2l-1 7h2l-1 8h2v26h-2l1 6h-2l1 5h-2l1 4h-2l.563 1.813C1179 1642 1179 1642 1178 1645h-2v2l2 1h-3v2l2 1-3 1 1.563 2.875L1177 1658l-1 2-1-3h-2v4l3 1v5c2.874 3.273 4.75 5.12 9 6l2 3c2.652 2.393 2.652 2.393 6 3l1.438 2.438c1.362 2.854 1.362 2.854 4.562 3.562l.438 1.813c.396 2.332.396 2.332 2.374 3.937 4.875 5.014 6.907 11.498 8.188 18.25l-1 2h2l-1 4h2l-1 6h2l-1 10h2v18l2-1c.286 8.571.286 8.571-2 12l3-1v3h3v2l2.569-.211c8.505-.659 16.953-.959 25.482-1.01l4.022-.035c3.595-.031 7.19-.056 10.785-.08 3.019-.02 6.038-.044 9.057-.068 7.129-.055 14.258-.106 21.387-.154 7.319-.049 14.637-.105 21.956-.165 6.32-.052 12.641-.099 18.962-.143 3.759-.026 7.518-.053 11.276-.085 3.536-.03 7.071-.054 10.606-.074 1.893-.012 3.786-.03 5.678-.047 7.788-.038 15.465.356 23.22 1.072l.438-3.375C1386 1756 1386 1756 1387 1754h-3l2-5-3-1 2-3-1.785-.148c-3.303-1.27-4.003-3.407-5.652-6.477-4.19-7.529-7.673-13.597-15.313-17.938L1360 1719v-2l-1.75.563c-2.457.477-3.894.194-6.25-.563l1-2h-3v2l-3-1v-2h-3v2h-10l2-2a535.423 535.423 0 0 0-4.25-.063l-2.39-.035c-2.35 0-2.35 0-4.47.727-1.89.371-1.89.371-4.89-1.629a97.813 97.813 0 0 0-7 0v-2l-5 1v-2l-5 2v-3l-1.75.563c-2.507.487-3.868.31-6.25-.563l-2-2-2 1v-2h-5l-1-4h-3l-1.813-2.75c-2.369-3.52-4.626-5.034-8.187-7.25l-1-2-2-1v-3h-2l1-4h-2l-.438-3.375c-.346-3.446-.346-3.446-1.562-5.625l1-2-2-1 1-2h-2l1-4h-2l1-4h-2l1-4h-2l1-4h-2l1-6h-2l1-6h-2l1-7h-2l1-8h-2l1-9h-2l1-10h-2c-.082-4.161.018-7.947 1-12h-2l1-12h-2c-.083-4.833.047-9.237 1-14h-2l1-17h-2a1109.16 1109.16 0 0 1-.063-6.125l-.035-3.445c.093-3.243.484-6.25 1.098-9.43h-2l1-16h-2l.035-3.684c.01-1.584.019-3.169.027-4.754l.026-2.431c.009-2.044-.036-4.088-.088-6.131l-1-1c-.46-6.687.21-13.364 1-20h-2c-.096-8.079-.125-15.983 1-24h-2c-.113-6.11.104-11.952 1-18h-2c-.14-10.715.267-21.312 1-32h-2v-21h2l-.219-2.71c-.546-7.115-.929-14.155-.781-21.29h2l-1-13h2l-1-11h2l-1-9h2l-1-8h2l-.563-3.25c-.378-3.245-.395-4.77.563-7.75v-3h2l-1-8h2l-1-8h2l-.5-1.5c-.707-3.534-.56-6.897-.5-10.5h2c-.114-2.25-.242-4.5-.375-6.75l-.21-3.797c-.2-3.336-.2-3.336-1.509-5.61-1.239-2.52-.739-3.919-.031-6.593l.617-2.422.508-1.828-3-1 2-6-3-1 2-4h-2l-.438-3.313c-.445-3.618-.445-3.618-1.562-6.687l1-2h-2l-.938-2.875c-.95-2.793-1.718-4.67-3.48-6.996-1.493-2.009-2.7-3.996-3.895-6.191l-1.296-2.368a2173.24 2173.24 0 0 1-2.907-5.39c-4.573-8.53-4.573-8.53-10.296-16.305-1.188-1.875-1.188-1.875-.876-4.125l.688-1.75-1.813-.25c-2.861-.981-3.7-2.148-5.187-4.75 0-3.816.077-4.936 2-8 1.586-1.492 1.586-1.492 3.375-2.875 3.34-2.733 5.424-5.428 7.625-9.125l2 1 2.313-2.375c3.5-3.42 5.918-4.852 10.687-5.625l1 3 1.875.813c2.125 1.187 2.125 1.187 3.438 3.937 1.916 3.692 4.017 5.454 7.261 7.953L1258 1164v2l3 2v3l3 1v2l2 2c5.587 7.294 10.33 15.169 13 24l1.438 2.688c2.155 4.57 3.62 9.343 4.562 14.312l-1 2h2l-1 4h2l-1 5h2l-1 5h2l-1 7h2l-1 11h2v24h-2l1 11h-2l1 9h-2l1 1.688c1.131 2.615 1.157 4.493 1 7.312l-3-1 1 3.75c.799 2.996 1 5.051 1 8.25h-2v3c5.813-2.18 10.164-5.147 15-9l2.66-2.027 2.715-2.098 2.523-1.945c2.09-1.919 3.047-3.33 4.102-5.93 1.052-2.48 1.682-3.767 3.875-5.375 2.8-2.141 4.332-4.615 6.125-7.625v-2l1.875-1.75c2.477-2.623 3.086-4.837 4.125-8.25l2-2c2.877-3.928 5.09-7.57 6.063-12.375.937-3.625.937-3.625 3.062-5.125l1.875-.5-.625-1.75c-.47-2.815.312-3.78 1.625-6.25v-4l1-2h2l-2-4h3l-1.063-2.375L1345 1229l1-2h2a348.063 348.063 0 0 0-.375-4.25c-.07-.789-.14-1.578-.21-2.39-.304-2.4-.304-2.4-1.509-4.516L1345 1214c.875-2.25.875-2.25 2-4h-2l1-4h-2l-.75-3.313c-.868-3.719-.868-3.719-3.375-5.25L1338 1196c-.04-2-.043-4 0-6l-3-2 1-2-2.063-.063c-4.345-1.386-7.112-4.412-9.937-7.937v-2h-2v-2h-2v-2h-2v-2h-2c-1.508-1.46-1.508-1.46-3.125-3.375l-1.633-1.898C1310 1163 1310 1163 1310 1161h-2v-2h-2v-2h-2l-2-5 6 4-1.27-1.162c-1.891-1.734-3.78-3.474-5.668-5.213l-1.998-1.828-1.904-1.758-1.761-1.619C1294 1143 1294 1143 1293 1141h-4l-3-2 1-2-1.75.563c-2.457.477-3.894.194-6.25-.563l1-2-5 2-1-2a99.768 99.768 0 0 0-6-1l-2.188-.563c-1.987-.554-1.987-.554-4.812-.437a160.253 160.253 0 0 1-7.813-3.688l-2.119-1.029c-5.702-2.853-10.466-5.88-14.068-11.283a281.771 281.771 0 0 0-5-5v2l-6-3v-2l-1.625-.625c-3.295-1.908-5.969-4.423-8.375-7.375v-2h-2l-.734-1.61c-2.158-4.567-2.158-4.567-5.329-8.453-2.63-2.63-3.587-5.5-4.937-8.937a170.832 170.832 0 0 0-2-4h-3l-1-1v1c-1.666.043-3.334.04-5 0l-1-1a179.988 179.988 0 0 0-6-1l1-3h-2l-1 2-2-2-2 1-1-2h-5l-2-2-3-1-1.938-1c-2.004-1.074-2.004-1.074-4.124-1.438-2.364-.686-3.22-1.844-4.938-3.562a70.134 70.134 0 0 0-4-1l-3-2v-2l-1.875-.688c-2.125-1.312-2.125-1.312-3-3.624-1.56-3.73-3.882-5.353-7.125-7.688l-1.957-.371c-2.918-.898-4.002-2.557-5.855-4.941l-1.895-2.364c-1.293-2.324-1.293-2.324-.992-4.617L1128 1030l-2.875-1.313C1122 1027 1122 1027 1120 1024v-3l-5 1v-2l-1.75.563c-2.457.477-3.894.194-6.25-.563l1-2h-2v2l-2-1 1-2-1.707.59c-2.81.502-4.323-.04-6.98-1.028-2.591-1.094-2.591-1.094-5.313-1.562l-3-2v-2l-6 1-1-2a78.117 78.117 0 0 0-4-1 76.475 76.475 0 0 1-4.063-1.875l-2.035-.992c-1.968-1.172-3.295-2.517-4.902-4.133l-2.625-.938c-2.375-1.062-2.375-1.062-3.188-3.187L1060 996h-3c-2.188-1.875-2.188-1.875-4-4v-2l-1.8.64c-2.2.36-2.2.36-5.4-1.878a214.536 214.536 0 0 1-3.487-3.074c-.89-.77-.89-.77-1.8-1.553-4.347-3.802-4.347-3.802-5.513-6.135l-2.188-.313c-3.97-.97-5.827-2.906-8.812-5.687l-1-2c-2.122-1.819-3.851-2.948-6.5-3.875-3.203-1.441-4.537-3.251-6.5-6.125l-1-3h-3c-1.881-2.167-3.449-4.481-5.086-6.836-2.15-2.43-3.85-3.206-6.914-4.164v-2h-2l1-3-2.125-.563c-7.63-3.814-11.033-11.769-13.875-19.437-1.033-3.613-2-7.217-2-11l-.563-3.5C974 903 974 903 975 901h-2l1-5-3-1 2-10h-2v-19h2l-1-10h2l-1-7h2l-1-5h2l-2-4h3l-.5-1.813C976 836 976 836 976 833l2-1v-3l1-3c0-1.701-.286-3.376-.5-5.063L978 817c1.875-1.063 1.875-1.063 4-2l2 1c-.188-2.445-.188-2.445-1-5-1.968-1.36-1.968-1.36-4-2l.098-6.152c.108-1.865.108-1.865-1.098-2.848a99.797 99.797 0 0 1 0-5v-3c.317-2.336.648-4.67 1-7h-2l.098-6.152c.108-1.865.108-1.865-1.098-2.848a74.456 74.456 0 0 1-.063-4.563l.028-2.503L976 767h2l-1-10h2l-.563-2.75c-.394-2.933-.384-4.514.563-7.25h2l-2-5c1-1 1-1 4-2v-2h-2v-2l2-1c.583-1.815.583-1.815.938-4 1.352-6.639 3.55-12.805 6.125-19.063C991.804 707.673 993 703.495 994 699h2l-1.563-2.188c-1.772-3.468-1.192-4.077-.437-7.812.132-3.271.094-6.54.063-9.813l-.014-2.677c-.012-2.17-.03-4.34-.049-6.51h2l-1-6h2l-1-4h2l-.621-1.719c-.485-2.917.23-4.17 1.558-6.781 1.69-3.344 2.063-4.575 2.063-8.5l1.375-1.313c2.418-2.51 2.81-5.363 3.625-8.687h2v-3a181.008 181.008 0 0 1 4-4v-2l2-2 1.688-1.75a113.533 113.533 0 0 1 5.812-5.25 102.522 102.522 0 0 0 7.5-7l5-5 1 1 1.75-1.75L1039 600l2.125-2.25C1043 596 1043 596 1045 596v-3l2-1-1-2h3l-1-4h2l-1-3h2l-1-3h2l-1-3c.403-3.304.609-4.609 3-7l1-3c1-3 1-3 3-5l1-2 3-1v-3c1.61-1.395 1.61-1.395 3.75-2.813 3.812-2.696 5.945-5.153 8.25-9.187l2 1 1.29-1.344c3.732-3.614 10.438-9.656 15.71-9.656l1-2 5 1 1-2 3-1 1-2c5.75-.125 5.75-.125 8 1l1-3 5 2-1-3 11 1-2-2c2.688-1.188 2.688-1.188 6-2 2.875 1.375 2.875 1.375 5 3l1-3c2.563-1.688 2.563-1.688 5-3l1 1 1.25-2.438c1.75-2.562 1.75-2.562 3.813-3.25L1151 514l2-2 3.563-1 3.437-1 1-2 3.25.063c4.76.103 4.76.103 8.75-2.063 2.02-.072 4.042-.084 6.063-.063l3.347.028 2.59.035v-1zm37 6 1 2zm6 3 1 2zm4 2 1 2zm-49 28 2 2h4v-2h-6zm-6 1 1 2 1-2h-2zm16 1c-3.516.272-7.032.445-10.555.621-3.208.353-5.543 1.016-8.445 2.379l-1 7-2-2v11l-2.938-.063c-4.395-.009-8.706.51-13.062 1.063v-2l-9 1-1-2c-3.125.139-6.25.287-9.375.438l-2.695.119-2.578.127-2.38.11c-2.047.097-2.047.097-3.972 1.206v-2h-2v2l-5-1v3h-2l-1-2-1 2h-3l-3 1v3h-5l-1 3-2-1-2 4-2-1-.813 2.313C1093 581 1093 581 1091.5 582.438c-2.227 2.32-2.863 4.44-3.5 7.562 1.235 2.23 1.235 2.23 3 4l1 3h3l-1 5 2 1v3h2l-.563 2.938L1097 612l1 1-2 2v3c-3 2-3 2-6 2-3.118.646-3.118.646-4 3l-2-1v2l-3-1a110.361 110.361 0 0 0-7 3v2l-3-1c-2.562.977-2.562.977-5.188 2.438l-2.73 1.433L1061 632v3l-3-1c-1.708 1.634-2.935 2.87-4 5h-3a99.185 99.185 0 0 0-3 5l-2 1v2l-4 1 1 3-3 1v3l-1.313 2.938c-1.48 3.345-2.57 6.728-3.562 10.25l-.867 3.042c-.545 2.826-.545 2.826 1.172 5.07l1.57 1.7v1l3.832-.035 4.98-.028 2.526-.025 2.432-.01 2.237-.016C1055 679 1055 679 1058 680l2-1 1 2 2 1 2-1-1 3 1 2h2v3l-2 1c-4.27 4.027-8.43 8.338-12 13v2l-3-1c-2.977 3.093-2.977 3.093-4 7l-3-1-2.5 2.875-1.406 1.617c-1.29 1.467-1.29 1.467-1.094 3.508h-2v2l-5 2v3l-4 2 1 2c-1.145 2.207-1.145 2.207-2.813 4.813-3.692 5.798-5.532 11.059-6.75 17.812l-.39 2.132c-2.177 10.647-2.177 10.647-1.047 21.243l7-1 1 2 2-2 3-1v-3l1.875.625L1034 771l2-2 3-1v-2l3 1v-2l3 1v-2l1.875.563c2.167.674 2.167.674 4.125-.563l2 6h2v12h-2l1 4-2 1-.5 2-.5 2-2 1a174.788 174.788 0 0 0-4 5l1 1-2.813 1.688c-3.191 2.315-4.358 3.915-6.187 7.312l-1.688 1.625c-1.657 1.42-1.657 1.42-1.312 4.375l-4 1 1 2-3 2 1 1-4 2 1 2-5 5 1 3-3 1v2c-1.5 1.625-1.5 1.625-3 3l2 1-1 2-3 1c-.733 2.015-.733 2.015-1 4h2v2l-3 1 1 2h-2v2h2v2h-3l1.125 2.563c1.058 4.157.308 6.457-1.125 10.437h-2v16h3l-1 1.813c-1.208 2.24-1.208 2.24-1 5.187l2 1-1 4h2l-1 3h2l-1 3h2l-1 3 1 2h2l.516 2.012c1.86 6.775 4.12 10.624 9.109 15.613C1028 926 1028 926 1030 929h2c1.604-3.508 2.22-6.144 2-10h2l-1-7h2l-1-6h2l-1-4h2l-1-4 2-1-1-1 2-1c.355-1.996.686-3.997 1-6l2-4-1-2 2-1a78.674 78.674 0 0 0 2.375-4.688c1.948-4.029 4.036-7.668 6.625-11.312l1.688.938c2.437 1.12 4.674 1.622 7.312 2.062l.25 1.875c.988 2.8 2.154 2.866 4.75 4.125 1.125 2 1.125 2 2 4l2 2c.707 1.65 1.38 3.316 2 5h2l-1 3c.39 2.143.39 2.143 1 4h-2l1 5h-2l1 6h-2l1 6h-2l.035 2.809c.01 1.197.018 2.395.027 3.629l.036 3.62C1071 923 1071 923 1070 924a59.19 59.19 0 0 0-.063 4.063L1070 932h2l-1 7h2l-1 4h2l-1 3c.96 3.03 1.738 4.738 4 7l2 6 2 2 1.813 2.875c2.162 3.089 4.063 5.042 7.187 7.125h3c2.188 3 2.188 3 4 6l1-2c2.294.904 4.58 1.807 6.82 2.836 1.703.776 3.44 1.475 5.18 2.164l2-1 1 3h2l-1-14h2c.082-4.161-.018-7.947-1-12h2l-.063-2.813C1117 950 1117 950 1118 947l-1-2h2l-1-4 2-1-1-1 2-2-1-1 2-2v-2l3-3 4 1 1-1 1.25 1.375c2.832 2.63 4.868 3.625 8.75 3.625v2l2.438.75L1145 938c.688 2.063.688 2.063 1 4l2 1c.45 1.996.45 1.996.688 4.438l.261 2.433C1149 952 1149 952 1148 954c-.098 2.532-.14 5.03-.125 7.563l-.012 2.115c-.302 3.45-.302 3.45 1.137 6.322.072 1.686.084 3.375.063 5.063l-.028 2.785L1149 980h2l-1 6h2l-1 4h2l-1 4h2l-1 3h2l-1 3c.977 2.562.977 2.562 2.438 5.188l1.433 2.73L1159 1010h2v3l2 2 1 2h3v2a89.782 89.782 0 0 0 4 4l2 2.125c1.952 1.83 3.618 2.722 6 3.875l3 3 3 1 1-2 3 4 2-1 1 2h5l-1-12h2l-1-9h2l-1-6h2l-1-5h2c1.002-3.583 1.002-3.583 0-7l2-1c.62-1.813.62-1.813 1-4l.563-2.75.437-2.25c5.976.556 8.856 2.856 13 7 1.314.904 2.65 1.776 4 2.625l2.125 1.352c1.812 1.183 1.812 1.183 3.875 1.023 2.49 5.977 3.115 10.703 3 17.188-.046 2.61-.047 5.2 0 7.812l1 1c.072 1.853.084 3.708.063 5.563l-.028 3.066L1232 1036h2l-1 7h2l-1 5h2l-.625 1.688c-.482 2.972.36 4.632 1.625 7.312h2l-1 3c1.362 3.178 2.549 5.549 5 8l1.625 3.25c2.125 3.858 4.9 5.796 8.477 8.262 2.71 2.125 4.098 4.58 5.898 7.488h2l2 2c3.048 2.614 3.048 2.614 7 3l1 2 2 1 2-1 1 2v-2l6 2-1-11h2l-1-10h2l-1-7h2l-1-5h2l-1-5h2l-1-5 2-1 1.188-1.5c2.691-2.228 5.41-2.18 8.812-2.5v2l2.813.313c3.39.73 3.92 1.317 6.187 3.687h4l.875 2.75c.89 2.572 1.84 4.863 3.125 7.25h2l-1 3c-.167 3.583-.167 3.583 0 7l1 1c.072 3.108-.004 6.204-.063 9.313-.248 2.606-.248 2.606 1.063 3.687.141 2.67.042 5.324 0 8h2l-1 5h2l-1 5h2l-1 3 1 2h2l-1 3c1.363 2.04 1.363 2.04 3 4l1 3h2l.313 2.313c.744 2.908 1.485 3.76 3.687 5.687l1 2h2l2 5h3l1 5h2l1.188 2.875c2.102 3.626 3.061 3.718 6.812 5.125a87.756 87.756 0 0 1 3 5h2l2 4 3-2-1-4h2l-1-5h2l-1-5h2l-1-7h2l-1-8h2l-1-11h2c.058-3.917.094-7.833.125-11.75.017-1.111.034-2.222.05-3.367l.02-3.242.032-2.984c-.235-2.747-.933-4.266-2.227-6.657.023-2.797.023-2.797.375-5.75l.336-2.984.289-2.266h-2l1-9h-2l1-6h-2l1-5h-2l1-5h-2l1-4h-2l1-4h-2l1-3h-2l1-3h-2l1-3-2-1v-3l-2-2 1-2h-3l-2-5 2-1-1-2-3-1c-1.688-3.063-1.688-3.063-3-6h-2l-.813-2.125c-1.157-2.945-1.157-2.945-2.812-5.875-1.378-3.007-1.662-4.75-1.375-8l-2.375-.688C1333 994 1333 994 1331.75 991.625c-.75-2.625-.75-2.625-1.063-4.813L1330 985l-2.25-.875c-3.138-1.284-4.462-2.982-6.508-5.625-1.309-1.687-1.309-1.687-3.617-3.375-9.225-7.468-9.225-7.468-9.98-12.484-.945-3.872-3.505-6.177-6.207-8.953l-1.577-1.667A527.292 527.292 0 0 0 1296 948c-.277 3.185-.277 3.185 2 6-6.142-5.074-11.716-10.657-17.25-16.375l-1.773-1.809-1.592-1.642c-1.337-1.39-1.337-1.39-3.385-1.174l-2-4h-2v-2h-2v-2c-1.688-1.669-1.688-1.669-3.813-3.375-4.776-3.95-7.787-8.466-11.187-13.625l-2 1c-5.84-3.362-10.69-7.388-15.438-12.125l-1.575-1.56c-2.59-2.638-4.374-5.024-5.987-8.315a120.257 120.257 0 0 0-4.875-5.125l-2.617-2.633c-2.213-1.978-3.897-2.968-6.508-4.242-5.374-4.646-10.073-9.482-13-16l1-2-4-2v-3l-1.816-.238c-2.91-1.015-3.543-2.34-5.121-4.95-1.695-2.77-3.372-5.17-5.504-7.636-2.817-3.32-4.682-6.892-6.559-10.801l-1.03-2.113A592.693 592.693 0 0 1 1175 820l-1.66-3.535c-3.655-8.215-3.655-8.215-2.34-13.465l-1-1-1-2-2 1v-2l2-1-3-1c-.688-2.063-.688-2.063-1-4l2-1h-3v-2h2l-1-2v-3l-2-2v-7h-2l1-5h-2l1-7h-2l.254-1.703c1.186-9.786.37-19.495-.254-29.297h2l-1-10h2v-6h-3c-3-2-3-2-5-5l-2-1v2c-3.875-2.625-3.875-2.625-5-6l-1 2-7-7-1 2-1.68-1.531-2.195-1.969-2.18-1.969c-1.794-1.737-1.794-1.737-3.945-1.531l-.438-2.375c-.44-2.59-.44-2.59-1.562-4.625l2-1-3.375-1.563c-2.22-1.242-3.39-1.966-4.535-4.261-.527-1.926-.527-1.926-1.09-5.176l2-1-4-2v-2l2-1h-2l1-3h-2l1-4h-2l1-4h-2l1-3c.097-2.657.14-5.281.125-7.938l.012-2.17c-.007-3.434-.057-6.61-1.137-9.892h2l-1-5 2-1-1-2h2l.34-2.168c.705-3.023 1.793-5.395 3.223-8.144l1.378-2.676L1124 615l-1-1 1.625-1.063c4.145-3.38 7.416-7.498 10.375-11.937l2 1 1-4 3 1c2.248-2.052 3.002-3.007 4-6l1 3 2-1-1-4h2l1 2h3l1-3 2 2v-2l5 1v-3l1.75 1.063c2.736 1.14 3.459.734 6.25-.063 2.333-.039 4.667-.045 7 0v1l8-1v2l5-1 1 2 1-1 2 2 3-1 2 3 2 1 1-1 2 3c1.325.683 2.658 1.35 4 2l1 2c2.527.656 2.527.656 5 1l.203 1.684c1.123 3.264 3.094 4.972 5.547 7.379l2.61 2.597c5.23 4.636 8.69 5.755 15.64 5.465 5.094-.164 10.054-.077 15.137.363 7.234.605 14.42.624 21.676.574l3.869-.013c3.106-.012 6.212-.028 9.318-.049v-1l16-1v-8l1-1c-.09-2.19-.247-4.378-.438-6.563l-.308-3.628L1303 597h2l-1-13h2c.09-4.474-.143-8.606-1-13l2-1a424.4 424.4 0 0 0-.375-4.75c-.07-.882-.14-1.763-.21-2.672-.414-2.569-1.127-4.336-2.415-6.578l-1 2-1-2-1.863.254-2.45.308-2.425.317C1293 557 1293 557 1290 556v3l-5-2v3l-1-2c-4.08 1.302-4.08 1.302-8 3l-1 3-2-1-2 2-1.375 1.313c-1.78 1.776-1.78 1.776-3.625 4.375l-2 2.312h-3c-1.874 1.692-1.874 1.692-3.625 3.875l-1.852 2.18c-1.569 1.87-1.569 1.87-2.523 3.945-2.322.407-4.657.744-7 1v-2h-2v-2h-2l-.75-1.688c-2.662-4.925-6.3-8.367-10.566-11.882-1.684-1.43-1.684-1.43-3.274-3.11-1.331-1.548-1.331-1.548-3.41-1.32v-2h-2v-2a349.422 349.422 0 0 0-5-4l-2-3v2c-3-2-3-2-4-4l-1 1-1.375-1.5c-1.501-1.726-1.501-1.726-3.625-1.5l-1-1a88.406 88.406 0 0 0-5 1v-2c-3.053-.158-3.053-.158-6 1zm-22 4 1 3zm42 0 1 2zm5 3 1 2zm3 2 1 2zm3 3 3 3-1-3h-2zm23 21 1 3v-3h-1zm-161 12 2 3 2-1-4-2zm109 1 1 2zm-29 33v2l-3.258.078c-3.961.55-3.961.55-5.922 3.906a96.521 96.521 0 0 0-1.695 3.766l-.89 1.883c-1.575 3.422-2.59 6.667-3.235 10.367l-1 1a99.984 99.984 0 0 0 0 5h2l.148 2.555.227 3.32c.07 1.09.14 2.181.21 3.305.148 2.95.148 2.95 2.415 4.82 1.692 1.98 3.341 3.992 5 6l3-1 1 4 2-1 1 2 2-1 1 2 3-1 3 1 1.313-1.75a94.658 94.658 0 0 1 3.374-4.25c1.679-2.159 1.679-2.159 1.313-6l1.938-.313L1186 665l1-3-1-1 3-2 2-3-1-1 2-1.313 2-1.687v-5l3-1-2-3h2v-2l-2-1 1-2-4-2 2-1-2.375-1.875C1189 631 1189 631 1187 629c-2.915-2.513-5.151-3.595-9-4l-2 1c-1.875.133-1.875.133-4 .125l-2.125.008C1168 626 1168 626 1166 625zm-17 20v2h2v-2h-2zm0 8 1 3v-3h-1zm92 7v2l-1.75-.625c-2.817-.47-3.872.119-6.25 1.625l-2 2c-1.98 1.692-3.992 3.341-6 5l1 2-2 1.375-2 1.625v2c-1 2-1 2-4 4l1 1-3 2-.5 2.5-.5 2.5-3 2h2c-1 2-1 2-4 4v3l-3 3a93.365 93.365 0 0 0-1 4h2c-.313 1.938-.313 1.938-1 4l-3 1 1 1-2 2 1 2h-2l1 3-2 1v2h2l-1 2h-2v2h2v3h-3v2h2v3h-3l.219 2.09c.726 7.35 1.337 14.465.156 21.785-.738 3.285-.738 3.285 1.625 6.125l-1 3h2l-1 5h2l-1 4h2l-1 4h2l-1 3c.527 2.089.527 2.089 1.438 4.188l.87 2.167L1206 790h2l-1 3c.875 2.167.875 2.167 2 4h2l-1 3c.749 2.102.749 2.102 1.938 4.188l1.152 2.167.91 1.645h2l.438 2.375c.44 2.59.44 2.59 1.562 4.625h2l.285 2.172c.832 3.291 2.174 5.33 4.152 8.078l1.872 2.64c1.521 2.2 1.521 2.2 3.691 3.11l1 3c2.015.733 2.015.733 4 1l-1 3c1.645 1.81 2.867 2.941 5.125 3.938L1241 843l.433 1.864c.679 2.558 1.623 3.54 3.508 5.37l1.768 1.739 1.853 1.777 1.866 1.824A863.56 863.56 0 0 0 1255 860l3-1v2h2l.25 1.875c.562 2.284.562 2.284 2.688 3.375 2.01.864 2.01.864 4.062.75l1 4h4l1 4 2-4 .813 3.438L1277 878l3 1 2 2 2-2 3-1-1-8h2l-1-7h2l-1-5h2l-1-5h2l-1-4h2l-.625-1.875L1291 845l2-2-1-1 2-1-1-4 2-1-1-2 2-1-1-1 2-2v-3l1.313-1.25c3.097-3.212 4.296-7.578 5.687-11.75l2-2-1-2 4-2-1-1c2.313-2.5 2.313-2.5 5-5h3l2-2a220.497 220.497 0 0 1 7-3v-2l3 1v-2l6 1v-1l9-1v2l9-1v2l5-1v2l6-1v2l5-1v2l4-1v2l5-1v2l6-1v2l6-1v2l6-1 1 2c8.436.335 8.436.335 16.16-2.379 3.26-3.726 5.134-8.015 6.84-12.621l1.25-2.813.75-2.187-1-2 2-1v-3l2-2-1-2 2-1c1.25-2.917 1.25-2.917 2-6l-1-2 2-1c-.274-3.927-.776-5.728-3.313-8.813-2.395-2.289-2.395-2.289-4.75-2.625C1418 752 1418 752 1416.063 749c-1.728-3.23-1.728-3.23-4.688-3.625L1409 745a94.607 94.607 0 0 1-2-4 82.767 82.767 0 0 0-3.125-3.75l-1.633-1.86L1401 734l-1 3c-2.1-2.534-3.961-4.93-5.563-7.813L1393 727h-3c-1.688-2.5-1.688-2.5-3-5l-2 2-2-4h-5l-.766-1.797c-1.38-2.464-2.786-3.698-4.984-5.453-7.122-6.077-11.482-12.78-14.25-21.75l-.25-3.188c-1.066-3.996-3.558-5.598-6.742-8.101-2.008-1.711-2.008-1.711-3.64-3.922L1346 674h-2v-2l-1.938-1.938C1340 668 1340 668 1339 665l-1 2c-3-2-3-2-5-5-2.443-1.31-2.443-1.31-5-2l-2 1a69.436 69.436 0 0 1-4.433.098l-2.803-.01-3.06-.025c-2.166-.01-4.332-.018-6.498-.026l-3.447-.019c-20.279-.105-40.5.026-60.759.982v-2h-4zm94 3 1 2zm7 5 2 4v-3l-2-1zm-310 1 1 2 1-2h-2zm0 7 2 2 1-2h-3zm321 4 1 2 2-1-3-1zm-224 12v2l2-1-2-1zm-135 12v2l2-1-2-1zm372 1c4.492 5.53 4.492 5.53 10 10-1.59-4.136-4.605-7.232-8-10h-2zm-222 1 1 2zm5 3 1 2zm8 5 1 2zm223 3 1 3v-3h-1zm-364 32 1 2 1-2h-2zm-1 4 1 2 1-2h-2zm-1 5 1 4 1-4h-2zm0 15 1 3v-3h-1zm4 4-1 2h3v-2h-2zm-39 20 1 3 1-3h-2zm3 8-1 2h2l-1-2zm-1 14 2 2v-2h-2zm-1 3v2l2-1-2-1zm369 8v2h3v-2h-3zm-12 1 1 2zm-144 17 1 2 2-1-3-1zm141 7v2l4-2h-4zm23 3-1 2h3v-2h-2zm8 0v3c2.97-.342 2.97-.342 6-1l1-2h-7zm-356 2v2h2v-2h-2zm195 2 1 2 2-1-3-1zm200 0-1 2 4-1-3-1zm-195 6 1 2 2-1-3-1zm74 12 1 2 2-1-3-1zm-47 14 2 4v-3l-2-1zm84 3 1 2zm-75 5 1 2zm74 0v9c2.35-1.898 2.35-1.898 2.125-5.125L1321 903l-2-1zm1 12 1 2 1-2h-2zm-58 3c1.309 3.122 1.309 3.122 4 5-1.309-3.122-1.309-3.122-4-5zm-283 1-1 2h2l-1-2zm397 3 1 3v-3h-1zm3 2v2h2v-2h-2zm4 0 1 2 1-2h-2zm-350 3v2l2-1-2-1zm241 2c1.309 3.122 1.309 3.122 4 5-1.309-3.122-1.309-3.122-4-5zm-260 33 1 3v-3h-1zm295 2 4 5 2-1a90.488 90.488 0 0 0-4-4h-2zm-282 8 1 2zm66 1 1 2zm-62 2 1 2zm68 2 1 2zm222 0 1 2 2-1-3-1zm-220 1 1 2zm2 1 1 2zm-64 2 1 2zm286 1 1 2 2-1-3-1zm-282 2 1 2zm4 3 1 2zm159 2 1 2zm2 0 1 2zm2 1 1 2 1-2h-2zm2 1 1 2 1-2h-2zm121 2 1 2 2-1-3-1zm-270 6 1 2zm6 4 1 2zm2 1 1 2zm3 2 1 2zm4 2 1 2zm448 1v1c12.29 1.06 24.763 1.998 37 0v-1h-37zm102 1v2h6l1-2h-7zm9 1 1 2zm-127 1 2 2v-2h-2zm129 0 1 2zm4 2 1 2zm3 2 1 2zm-144 1 1 2zm-381 6 1 2zm2 3 1 2 2-1-3-1zm63 7 1 2zm-57 1 1 2 2-1-3-1zm4 5 1 2 2-1-3-1zm491 2 1 2zm2 3 1 2 2-1-3-1zm-476 11 1 3v-3h-1zm4 3 1 2zm6 4 1 2zm2 1 1 2zm-504 4c1.443 3.366 3.333 5.51 6 8l2-1c-1.143-1.17-2.29-2.336-3.438-3.5l-1.933-1.969c-1.378-1.645-1.378-1.645-2.629-1.531zm-45 1 1 2 3-1-4-1zm575 5 1 2zm-522 2 2 2v-2h-2zm537 3 1 2 2-1-3-1zm15 22 2 3 2-1-4-2zm-562 5 4 1zm585 15 1 2zm3 2 1 2zm2 1 1 2zm3 2 1 2zm2 1 1 2zm-689 1 1 2zm695 2-1 2h2l-1-2zm2 1 1 2zm2 1 1 2zm-786 4 1 2zm1 2 2 2v-2h-2zm-30 2 1 2 1-2h-2zm-12 3 1 2zm1142 1v2h2v-2h-2zm-1107 4-1 2 3-1-2-1zm771 3c.833 2.167.833 2.167 3 3v-3h-3zm5 3 1 2zm-784 4-1 2 3-1-2-1zm855 10a323.627 323.627 0 0 0 2.75 3.375l1.547 1.898c1.785 1.81 3.382 2.728 5.703 3.727a323.627 323.627 0 0 0-2.75-3.375l-1.547-1.898c-1.785-1.81-3.382-2.728-5.703-3.727zm13 14 2 3 2-1-4-2zm-89 31 1 2 1-2h-2zm144 10 1 2zm-2 7 1 2zm-2 7v2l2-1-2-1zm14 6 1 2zm-4 3 1 2zm-13 3v2h2v-2h-2zm8 1 1 2zm-351 47 1 2 2-1-3-1zm2 3 1 2 2-1-3-1zm5 7 1 2 2-1-3-1zm-319 4 1 2zm322 0 1 2 2-1-3-1zm-324 7 1 2zm27 1 1 2 3-1-4-1zm-4 1 2 2v-2h-2zm-4 1 2 2v-2h-2zm-4 1v2l2-1-2-1zm-4 1 1 2zm-6 2v2l2-1-2-1zm-8 44 1 2zm-7 3 1 2zm-2 1 1 2zm391 78-1 2h2l-1-2zm-880 93 1 2 1-2h-2zm-73 18v2h2v-2h-2zm-14 40 2 2v-2h-2zm9 3 1 2 1-2h-2zm286 63 1 2zm-1 4 1 2 1-2h-2zm717 19 1 2 2-1-3-1zm-826 13 1 3v-3h-1zm840 0 1 3v-3h-1zm-765 1 1 2 2-1-3-1zm895 0 1 2zm-125 3 2 4v-3l-2-1zm-765 1 1 3v-3h-1zm3 3 2 2v-2h-2zm3 1 1 2zm2 1 1 2zm2 1v2h2v-2h-2zm969 18 1 2 2-1-3-1zm-1085 8v2h2v-2h-2zm187 1 1 2 1-2h-2zm904 2 1 2 1-2h-2zm-1089 4 1 3zm891 46 5 5c-.791-2-.791-2-2-4l-3-1zm13 8 1 2zm-894 1 1 2zm215 1 1 2 1-2h-2z"/><path d="m47.074 572.878 2.802.004 3.225-.002 3.595.013 3.794.001c3.508.002 7.015.01 10.522.019 3.804.008 7.608.011 11.412.014 6.676.007 13.353.018 20.03.031 9.929.02 19.857.033 29.786.046 16.699.021 33.397.047 50.096.075 16.542.029 33.084.055 49.626.078l3.113.005 15.649.022c36.98.052 73.96.108 110.94.168a783578.283 783578.283 0 0 0 144.505.22 3362693.58 3362693.58 0 0 1 71.095.104c69.579.103 139.157.213 208.736.324v2l14-1v2l1.898-.254 2.477-.309 2.46-.316C809 576 809 576 811 577h4v2l5-1v2l4-1v2l1.75-.625c2.805-.467 3.808.286 6.25 1.625h3l-1 2h2l1-2 1 2c1.617.447 3.236.89 4.86 1.316 4.274 1.365 8.168 3.622 12.14 5.684 2.165 1.086 4.332 2.17 6.5 3.25L869 598v2h3v2h3v2h3l2 2 2 1v2l4 1v2l1.812.312c2.487.782 3.417 1.837 5.188 3.688h2c1.297 1.54 1.297 1.54 2.75 3.625 5.019 7.063 5.019 7.063 12.25 11.375l.437 1.812c.758 2.948 2.342 4.169 4.563 6.188 2 2 2 2 2 5l3 1c2.767 2.972 3 3.742 3 8l2 1c2 3 2 3 2 6l2 1c1.105 1.996 1.105 1.996 2.187 4.437l1.106 2.434C933 670 933 670 932 672l2 1c.68 1.996 1.346 3.996 2 6l2 2h-2v2h2c1.125 4.75 1.125 4.75 0 7l3 1-2 4h2l-1 5 3 1-2 6h2v33h-2l1 7h-2l1 5h-2l1 4h-2v2h2a71.711 71.711 0 0 1-2.125 3.937c-1.199 2.194-1.199 2.194.125 5.063l-1.5 1.25c-1.934 1.872-1.934 1.872-1.5 5.75l-2 2v3c-.375 2.625-.375 2.625-1 5l-2 1v4c-1 2.25-1 2.25-2 4h-2v2h2v2l-2 1v2h-2v3l2 1-3 1v2l2 1-1 1.75c-1.27 2.449-1.27 2.449-1 6.25h-2l.254 1.934.308 2.503.317 2.497L922 825l-1 1a120.4 120.4 0 0 0-.316 5.785l-.127 3.545-.12 3.732-.13 3.745A3381.19 3381.19 0 0 0 920 852h2l-.035 1.793c-.049 4.253.176 8.033 1.035 12.207l-1 3h2l-1 6h2l-1 5h2l-1 4h2l-1 4h2c1.125 4.75 1.125 4.75 0 7h2c.53 1.622 1.049 3.248 1.562 4.875l.88 2.742C933 905 933 905 932 907l2 1c.965 2.04.965 2.04 1.937 4.625l1.051 2.727L938 918c1.864 4.883 1.864 4.883 5 9l2 6 2 2 .812 2.062c1.387 3.43 3.143 6.542 4.97 9.754.8 1.435 1.563 2.891 2.284 4.368 1.049 2.04 2.286 3.234 3.934 4.816l1.5 2.125c1.45 2.16 1.45 2.16 4.5 2.875v3l2 1-1 1 3 1v2l2 1v2l3.25 1.875c4.274 2.555 7.672 5.7 11.187 9.187l1.613 1.572c4.603 4.656 4.603 4.656 4.95 8.366h3c1.625 1.437 1.625 1.437 3 3l1 1h2l1.625 3.375c1.685 2.992 2.078 3.51 5.437 4.812l2.938.813c1.75 2.125 1.75 2.125 3 4h2l2 3c1.974 1.71 3.352 2.875 5.937 3.375 2.556.774 3.65 2.236 5.434 4.148 3.401 3.084 8.916 7.477 13.629 7.477l4 4h2l2 3h2l.75 1.75c1.417 2.55 3.126 4.268 5.25 6.25-.397 1.319-.818 2.63-1.25 3.937l-.703 2.215c-1.047 1.848-1.047 1.848-3.156 2.602L1052 1052v3c-1.68 1.754-1.68 1.754-3.875 3.562l-2.18 1.817L1044 1062l-2 2h-3l-.188 2.375L1038 1069c-2.5 1.25-2.5 1.25-5 2l-1 1h-2l-2-3-3 1c-2.707-1.328-2.707-1.328-5.813-3.25-3.137-1.925-6.196-3.755-9.511-5.36C1007 1060 1007 1060 1006 1058a189.55 189.55 0 0 0-5.148-2.21c-6.3-2.685-6.3-2.685-7.852-5.79a78.037 78.037 0 0 0-5-2v-2l-1.813-.875C984 1044 984 1044 981 1042v-2l-3-1-1-2-3-2-1-3-3 1c-2.262-1.363-2.262-1.363-4.688-3.313l-2.449-1.925L961 1026v-2l-1.716-.732c-2.736-1.519-4.615-3.34-6.83-5.55l-2.56-2.55-2.644-2.668-2.691-2.668-2.543-2.55-2.335-2.343C938 1003 938 1003 938 1001h-2l-2-5h-2l-.438-2.438c-.79-3.599-1.385-3.426-4.5-5.812-2.809-2.306-3.902-4.271-5.062-7.75l-2-1c-1-3-1-3-1-6l-1.797-.215c-6.665-2.375-10.413-13.927-13.516-20.035l-1.022-2.002c-2.06-4.163-3.51-8.228-4.665-12.748-1.04-4.008-2.264-7.689-4-11.438-1.899-4.153-3.134-8.074-4-12.562l1-2h-2c-.363-1.29-.715-2.582-1.063-3.875l-.597-2.18C887 904 887 904 888 902h-2c-1.125-5.75-1.125-5.75 0-8h-2l1-4h-2l1-5h-2l1-5h-2v-6h-1l1-10h-2l1-11h-2c-1.002-7.833-.89-15.159 0-23h2l-1-12h2l-1-8h2l-1-5h2l-2-4 3-1-1-4h2l-2-4h3l-2-4h3v-2l-2-1 2-2-1-2h3l-.5-1.813C888 777 888 777 888 774h3v-2l-2-1h3l-.5-1.813C891 767 891 767 891 764h3v-2l-2-1 2-2v-2h2v-2l-2-1 3-1-1-4h2l-2-4 3-1-2-6 3-1-.5-2.438c-.978-6.969-.51-13.623.5-20.562l-3-1 2-6h-2c-1.125-5.75-1.125-5.75 0-8l-3-1v-2l-1-2 1-1-3-2v-3c-.999-1.001-1.999-2.001-3-3-1.577-2.952-2.98-5.964-4.402-8.992-1.593-3-3.446-5.394-5.598-8.008-.813-2.25-.813-2.25-1-4l1-1-2.813-1.75c-2.804-1.98-4.343-3.435-6.187-6.25-1.169-1.217-1.169-1.217-3.438-2.813-2.393-2.043-3.434-3.315-4.562-6.187l-2 1-3-3-2-1-3-2-1.938-.875C847 639 847 639 844.937 636.875c-1.847-2.223-1.847-2.223-4.937-1.875l-1.313-1.438c-2.342-2.169-4.592-2.091-7.687-2.562l-1-2-2 1-2-4-3 1v-2h-2l-1 2v-3l-4 2v-3h-2v2l-3-1 1-2h-2v2l-4-1 1-2-3 2-3-1h-5v-2l-1.934.254-2.504.308-2.496.317L787 621l-1-1a120.4 120.4 0 0 0-5.785-.316l-3.545-.127-3.733-.12-3.744-.13A3381.19 3381.19 0 0 0 760 619v-1l-3.368.001c-48.978.017-97.957.032-146.936.041h-2.247a1723044.505 1723044.505 0 0 1-72.058.013h-2.384c-25.49.005-50.98.012-76.471.021a277999.524 277999.524 0 0 1-91.894.02c-11.721 0-23.443.005-35.164.01-11.785.007-23.57.009-35.354.008-6.385-.001-12.77 0-19.155.005-5.846.005-11.69.005-17.536.002-2.115 0-4.23 0-6.344.004-2.876.004-5.752.002-8.628-.002l-2.483.008c-4.983-.014-9.86-.35-14.812-.905-2.711-.283-5.39-.349-8.114-.346l-3.229-.004-3.433.01h-3.699c-3.315 0-6.63.006-9.946.013-3.477.006-6.953.006-10.43.008-6.57.003-13.139.01-19.708.021-7.485.011-14.97.017-22.455.022-15.384.01-30.768.028-46.152.05l1 2h-4c-.193 5.526-.287 9.888 2 15 .175 1.33.318 2.664.437 4 .372 3.655 1.533 5.911 3.563 9v3l2 1c2.125 1.437 2.125 1.437 4 3v2l1.812.75c2.476 1.414 3.522 2.979 5.188 5.25h2l1.562 1.687c3.341 3.17 7.127 5.65 11.438 7.313 1.34-.302 2.676-.63 4-1a90.576 90.576 0 0 1 4 4h5v3l5-1v2l2-1c2-.04 4-.043 6 0v1h109v1h433v-1h82v1h25v2l4-2 1.375 1.5c1.501 1.726 1.501 1.726 3.625 1.5 1.332 1.574 1.332 1.574 2.812 3.687 1.881 2.608 3.649 4.774 5.938 7.063 2.092 2.092 3.025 3.624 4.25 6.25l1.383 1.27c2.079 2.224 3.113 4.524 4.367 7.292l1.36 2.942L834 713l-1 2 2 1-1 2h2v2h-2v2c-3.734 1.216-7.175 1.026-11.075.885l-4.431-.143-2.384-.083c-21.501-.736-42.996-.847-64.507-.844-5.007 0-10.014-.014-15.02-.031-3.922-.011-7.843-.013-11.765-.013-1.848 0-3.697-.005-5.545-.013-2.562-.01-5.123-.007-7.684 0-.74-.007-1.48-.012-2.243-.018-3.625.022-6.558.316-10.103 1.26-7.016 1.598-14.187 1.276-21.34 1.254a4162.148 4162.148 0 0 1-18.39.007c-4.85-.004-9.698.003-14.547.008-9.494.01-18.989.007-28.483.002-7.72-.005-15.44-.006-23.16-.003h-3.332l-6.7.003c-20.942.005-41.883-.001-62.825-.012-17.954-.009-35.907-.007-53.86.002a77475.606 77475.606 0 0 1-69.26.007l-3.32-.001c-7.704-.002-15.408 0-23.113.006-9.398.005-18.797.004-28.195-.007-4.792-.005-9.583-.007-14.375 0-4.394.005-8.788.002-13.182-.009-1.582-.002-3.164 0-4.746.004-8.577.025-16.858-.387-25.346-1.805-5.093-.757-10.167-.764-15.307-.775l-3.435-.03c-3.69-.03-7.38-.048-11.07-.065a8786.787 8786.787 0 0 0-25.93-.175c-6.912-.039-13.824-.088-20.735-.138A26882.1 26882.1 0 0 0 166 721l1 5v-4c6.055-.195 6.055-.195 8 0l2 2c-2.763.597-5.16 1-8 1 1.182 5.956 1.182 5.956 3.125 11.687.875 2.313.875 2.313.687 5.188.31 5.174 3.624 8.56 7.188 12.125l-1 1 4 1v2h2l1.187 2.875c2.107 3.631 2.958 3.87 6.813 5.125l3.125 2.125c2.722 2.148 2.722 2.148 5.875 1.875l1 2 4-1 1 2-1 2 1.687-.625c3.02-.49 4.472.489 7.313 1.625 2.99.463 5.986.75 9 1v2l3-1a99.155 99.155 0 0 1 5.187-.063l2.731.028L238 778v1h594l-1 4 2 1-1 2.437c-1.207 4.301-1.177 8.133-1 12.563h-2l.562 3.25c.386 3.306.347 4.72-.562 7.75a99.048 99.048 0 0 0 0 5h-2l2 5-3 1-1 3-1.936-.038c-34.087-.66-68.168-1.071-102.261-1.085-2.518-.002-5.036-.006-7.554-.01-4.045-.006-8.09-.006-12.134-.001-1.466 0-2.932 0-4.398-.002-8.399-.011-16.776.162-25.168.497-16.848.66-33.68.784-50.539.77-3.99-.003-7.98.001-11.97.004-7.769.004-15.537.003-23.305 0-6.316-.002-12.632-.002-18.948-.001h-2.744l-5.52.001c-17.161.003-34.322 0-51.482-.006-14.697-.004-29.393-.003-44.09.001a104496.755 104496.755 0 0 1-56.879.004h-2.724c-6.31-.002-12.62 0-18.93.002-7.686.003-15.372.002-23.058-.003-3.915-.003-7.83-.004-11.744 0-3.59.003-7.181.001-10.772-.004-1.897-.002-3.793.001-5.69.005a235.469 235.469 0 0 1-20.295-.909c-4.295-.338-8.572-.35-12.879-.323l-2.634.005c-2.72.005-5.44.018-8.159.03-1.867.006-3.735.01-5.603.014-4.528.011-9.056.028-13.584.049l3 2-6 2v5h2c.65 1.582 1.294 3.166 1.937 4.75l1.09 2.672c.828 2.193 1.436 4.303 1.973 6.578 1.92 4.433 4.586 8.586 8 12h3c1.5 1.312 1.5 1.312 3 3 2.536 2.642 4.69 4.74 8.406 5.477 2.775.56 4.639 1.51 7.094 2.898 5.902 3.076 12.001 4.372 18.5 5.625v4l3-2a97.813 97.813 0 0 1 7 0l-3 2 2.32-.494c4.868-.67 9.64-.63 14.547-.604l3.136.005c3.29.005 6.581.018 9.872.03 2.237.006 4.474.01 6.71.014 5.472.011 10.944.028 16.415.049v1l-37 1h55v-1h122v1h13v-1h91v1h201v2h2l-1 6h2l-1 5h2l-1 6h2l-1 6h2l-1 5h2l-1 4h2l-1 5h2v2h-2v2c-1.853.198-3.708.383-5.563.562l-3.128.317C822 924 822 924 818.87 923.535c-5.422-.75-10.78-.68-16.246-.66l-3.29-.012-3.233.004-2.896.004c-2.452.099-4.751.314-7.175.63-5.581.63-11.12.638-16.732.626l-3.485.005c-3.839.004-7.677 0-11.516-.003a18382.925 18382.925 0 0 1-28.396.006c-5.455-.002-10.91-.002-16.365-.001h-2.357l-4.74.001c-14.806.003-29.612 0-44.418-.006-12.684-.004-25.368-.003-38.052.001a77441.61 77441.61 0 0 1-48.972.004h-2.348c-5.442-.002-10.884 0-16.325.002-6.642.003-13.283.002-19.925-.003-3.384-.003-6.768-.003-10.152 0-3.68.002-7.36-.001-11.04-.006l-3.191.007c-6.418-.017-12.755-.354-19.15-.908-3.931-.31-7.837-.36-11.778-.34h-2.4c-2.56 0-5.118.008-7.677.016l-5.393.005c-4.687.003-9.373.013-14.06.024-4.8.01-9.6.015-14.4.02-9.387.01-18.773.028-28.159.049l-1 2c-2.063 1.125-2.063 1.125-4 2-.593 4.893 1.46 8.021 4 12 3 4.821 3 4.821 3 7h2v2l1.828.805c2.257 1.242 3.296 2.356 4.922 4.32 4.648 4.861 10.606 7.268 16.605 10.078 2.813 1.331 5.245 2.788 7.645 4.797l1-1c7.398-.477 7.398-.477 9.812 1.437L452 970l3 1v2l1.73-.988c2.436-1.086 3.953-1.245 6.598-1.207l2.422.02 2.5.05 2.547.027c2.068.024 4.135.06 6.203.098v1l-8 1h160v1l3.568-.008a67766.135 67766.135 0 0 1 94.107-.157l2.072-.002c11.085-.013 22.17-.037 33.255-.064 11.369-.028 22.738-.045 34.107-.051 6.388-.004 12.776-.013 19.164-.035 6.007-.02 12.014-.027 18.022-.022 2.21-.001 4.419-.007 6.628-.019 3.008-.014 6.015-.011 9.023-.003l2.673-.026c5.985.044 5.985.044 7.995 1.785L861 977l2.125 2c2.876 3.068 3.875 6.833 3.875 11l2 1a264.271 264.271 0 0 1 3 5l2 2 .937 2.375c1.055 2.605 2.378 4.404 4.063 6.625v2l2 2c.398 1.988.738 3.99 1 6l-1.81-.003c-14.548-.022-29.096-.038-43.644-.049-7.035-.005-14.07-.012-21.106-.023-6.788-.011-13.577-.017-20.365-.02-2.591-.002-5.182-.005-7.773-.01-3.627-.008-7.254-.009-10.88-.009l-3.25-.01c-4.846.006-9.406.134-14.172 1.124-1.549.134-3.1.24-4.652.316l-2.584.128-2.702.118-2.79.13c-7.762.334-15.503.415-23.272.308l1.023 1.793C730 1031.382 730 1031.382 730 1036c3.126 3.476 3.126 3.476 7 6h3l1 3 2.637.316c3.54.72 6.034 1.864 9.175 3.621l2.895 1.59C758 1052 758 1052 759 1054l-1 2h2v-3l7 1 2 5 1.703-.992c2.566-1.126 4.265-1.215 7.047-1.133l2.422.055 1.828.07v1l-5 1 2.54-.496c3.665-.534 7.132-.601 10.835-.567l3.773.028L797 1058l-1 2c11.978.023 23.956.04 35.934.052 5.561.005 11.123.012 16.684.023 5.362.011 10.724.017 16.086.02 2.051.002 4.102.005 6.152.01 2.862.008 5.723.009 8.585.009l2.596.01c3.788.364 3.788.364 6.963-1.124 4.576-.339 9.164-.325 13.75-.375l3.906-.113 3.766-.035 3.456-.06c5.399 1.009 8.081 5.298 11.122 9.583 1.593 2.167 3.095 4.095 5 6v3l3 1v2l4 2v3c2.27 2.52 2.27 2.52 5 5l6 6-1 1 2 2c-.375 2.125-.375 2.125-1 4-2.396.054-4.791.094-7.188.125l-2.04.05c-4.06.04-7.122-.375-10.772-2.175v2c-12.919 1.144-25.79 1.116-38.75 1.062a7555.204 7555.204 0 0 1-20.244-.056c-1.669-.005-3.337-.006-5.006-.006h-61v-1l-15-1v2h-10v-3l-8 2v-3l-1.813 1.062C766 1102 766 1102 763 1101l1-2-5 2-1-2-3 1-1-2-2 1v-3l-5 2-1-1c-1.95-1.08-1.95-1.08-4.063-1.438L740 1095l-1-2h-3c-11.641-3.898-23.01-10.588-32-19v-2l-1.762-.691c-10.443-6.106-19.368-25.592-24.238-36.309a569.332 569.332 0 0 1-1-6l-2-1a89.56 89.56 0 0 1-1-6 518.528 518.528 0 0 0-1-5l-2.082.507c-3.296.557-6.259.507-9.6.376a6298.37 6298.37 0 0 0-4.238-.145l-2.314-.083c-28.533-.998-57.088-.807-85.634-.784-5.96.005-11.92.002-17.88-.003-5.824-.005-11.65-.005-17.474-.003-3.447.002-6.893.002-10.34-.001-3.807-.003-7.613.001-11.42.007l-3.394-.007c-5.326.015-10.374.247-15.624 1.136a75.54 75.54 0 0 1-5.059-.121l-2.666-.147-2.713-.17-2.794-.158c-2.257-.128-4.512-.263-6.768-.404v-2l-16 1v-2l-2.313 1c-2.687 1-2.687 1-5.687 1v-2l-5 1-1-2-4 1 1-3-5 2 1-3-5 2 1-3-4 2-1-1h-2l-1-2h-3a178.655 178.655 0 0 1-4-2 319.09 319.09 0 0 0-4-1c-20.057-5.934-40.406-23.223-50.55-41.29L361 961a431.134 431.134 0 0 0-2.105-3.46c-3.841-6.325-7.009-12.069-7.895-19.54l1-1-2-2 1-1-2-2 1-1-2-1 .062-2.375c.125-2.606.125-2.606-1.062-4.625h-7v-2l-10 1v-2l-1.813 1C326 922 326 922 323 922v-3l-2.813.5c-2.798.439-5.367.5-8.187.5v-2h-4v-2l-5 2 1-3-1.813.5C300 916 300 916 297 916l-1-2h-4l-3-1-1-2-2 1-1-1c-1.664-.674-3.33-1.34-5-2-2.556-1.169-3.99-1.99-6-4l-2.316-.422c-8.114-1.748-15.393-9.958-21.372-15.453l-1.892-1.731c-1.515-1.421-2.973-2.903-4.42-4.394v-2h-2c-4.431-5.76-7.848-12.371-11.313-18.75l-1.021-1.858c-2.173-4.08-3.542-7.942-4.666-12.392h3l-3-1v-2h2v-2l-3 1a88.406 88.406 0 0 1-1-5l1-1-2-1c0-2 0-2 1-3l-2-2 2-3-3-1c0-2.428.5-4.63 1-7h-2v-2l-3 1v-2h-2l-1 2-1-3-1.75.562c-2.457.478-3.894.195-6.25-.562l1-2h-2v2a838.78 838.78 0 0 1-4.438-.938l-2.496-.527c-3.139-.813-3.124-1.622-5.066-4.535l-1 2-1-2h-3a178.655 178.655 0 0 1-4-2l-2-.438c-2-.562-2-.562-3.875-2-2.088-1.72-2.088-1.72-4.875-2.375-4.918-1.797-9.863-4.72-12.484-9.382L158 793l-2 1-2-1v-2l-1.75-.766c-2.52-1.382-4.227-2.945-6.25-4.984l-2-1.984c-5.158-5.843-8.28-12.596-11.625-19.579l-1.484-3.013C127.88 754.41 125 748.097 125 741h2v-2h-3l-1-6h2v-2h-3v-3h2v-2h-3l2-6-3-1 2-5-3 1c-2.715-1.406-2.715-1.406-5.938-3.5a1528.02 1528.02 0 0 0-3.476-2.227l-1.79-1.149c-3.79-2.372-7.722-4.506-11.628-6.679L94 700v-2l-2.438-.875C89 696 89 696 88 694l-1.875-.75C84 692 84 692 82.625 689.125 80.663 685.352 78.63 684.117 75 682l-3-2v-2h-2a107.362 107.362 0 0 1-4.688-6.25l-1.35-1.927C56.737 659.39 49 648.17 49 635h2v-2l-3 1c0-3 0-3 1-4-.508-2.949-1.593-5.374-3-8h2l-2-2c.033-2.729.564-5.297 1-8h-2l1-15h-2c-.029-3.812-.047-7.625-.063-11.438l-.025-3.298-.01-3.135-.016-2.904c.149-2.91.283-3.176 3.188-3.347zM91 624l1 3v-3h-1zm4 11-1 2h2l-1-2zm753 2 1 2zm-717 34 1 2 1-2h-2zm-61 4 1 2 2-1-3-1zm21 19 1 3v-3h-1zm4 3 1 2zm3 2 1 2zm3 2 1 2zm2 1 1 2zm2 1 1 2zm3 2 1 2zm2 1 1 2zm5 3 1 2zm2 1 1 2zm10 36 1 2 1-2h-2zm4 8 1 2zm32 42 1 2zm3 2 1 3v-3h-1zm3 2 1 2zm3 2 1 2zm25 11 1 2zm67 15v2h2v-2h-2zm5 11-1 2h2l-1-2zm-44 1 1 2zm73 29 1 2 1-2h-2zm2 1v2l2-1-2-1zm3 1 1 2zm2 1 1 2zm2 1v2h2v-2h-2zm4 1-1 2h2l-1-2zm3 1 1 2 1-2h-2zm4 1 1 2 1-2h-2zm-72 5 2 3 2-1-4-2zm9 9 3 3-1-3h-2zm7 5 1 3v-3h-1zm4 3 1 2zm3 2 1 2zm3 2 1 2zm5 3 1 2zm4 2 1 2zm120 35 1 2 2-1-3-1zm4 3v3h3l-3-3zm8 9 1 3v-3h-1zm4 3 1 3v-3h-1zm6 4 1 2zm2 1 1 2zm2 1 1 2zm2 1 1 2zm3 1-1 2h2l-1-2zm2 1 1 2zm10 3v2h2v-2h-2zm-73 3 1 2 2-1-3-1zm554 11 1 2 2-1-3-1zm-541 1 1 2zm5 4 1 2zm9 6 1 2zm537 1 1 2 2-1-3-1zm-534 1 1 2zm4 2 1 2zm535 3 2 3 2-1-4-2zm11 12 4 4-2-4h-2zm4 4 2 2v-2h-2zm-278 8-1 2h2l-1-2zm289 1 1 3v-3h-1zm16 13 1 2zm4 3 1 2zm4 3 1 2zm-246 3 2 2v-2h-2zm250 0 1 2zm-247 1 1 2zm2 1 1 2zm248 0 1 3v-3h-1zm-246 1 1 2zm2 1 1 2zm2 1v2h2v-2h-2zm246 0 1 2zm-240 2v2h2v-2h-2zm4 1 1 2zm244 2 1 2zm5 3 1 2zm2 1 1 2zm-318 1 1 2 2-1-3-1zm320 0 1 2zm2 1 1 2zm-312 8 2 4v-3l-2-1zm7 6 1 3v-3h-1zm4 3 1 2zm3 2 1 2zm3 2 1 2zm5 3 1 2zM1284.648 693.426c3.355.819 6.73.95 10.165 1.136l2.278.125c9.884.501 19.538.795 29.347-.75 5.233-.816 9.432-1.389 14.562.063 2 2.563 2 2.563 3 5h-3l2 2c-.023 2.164-.023 2.164-.375 4.625l-.336 2.477L1342 710h2a88.406 88.406 0 0 1 1 5l-1 1a85.688 85.688 0 0 0-.563 4.563l-.253 2.503L1343 725l2 1h-2l-1 4v-2c-4.094.118-8.187.242-12.28.372-1.393.044-2.786.085-4.179.125-2 .058-4.001.122-6.002.187l-3.65.11c-2.829.017-2.829.017-4.889 1.206l-1-2-2 1-1.125-1.438c-2.501-2.084-4.69-2.208-7.875-2.562l-1-4h-4l-.875-1.813c-1.172-2.38-1.172-2.38-3.125-5.187l-2.438-.438c-2.562-.562-2.562-.562-4.374-2.5C1282 709 1282 709 1282 707l-1.438-1.375c-1.857-1.932-2.25-2.979-2.562-5.625.188-2.625.188-2.625 1-5 2.027-1.538 3.13-2.225 5.648-1.574zM1339 695l1 2zm-38 28 1 2zM1457.148 932.895C1459 934 1459 934 1461 936l2.375 1.313C1466 939 1466 939 1468 941.563c3 3.656 6.512 4.44 11 5.437v2l2.585-.2c10.735-.776 21.456-1.131 32.216-1.355l2.965-.063c30.357-.628 60.722-.533 91.083-.51 6.61.004 13.222 0 19.833-.004 6.46-.005 12.921-.005 19.381-.003 3.823.002 7.645.002 11.468-.001 4.211-.004 8.422.001 12.634.007l3.784-.007 3.457.009 3 .001c2.353.114 4.344.455 6.594 1.126l1.242-1.75 1.633-2.25 1.617-2.25L1694 940h2l1-2 1 1 1.688-1.938c4.374-3.901 9.722-3.328 15.312-3.062 3.92 1.198 5.567 3.807 8 7l2.125 1.75c4.12 4.945 4.24 12.051 3.875 18.25-.477 2.451-1.207 4.622-2 7l-3 1 1 2-2 2-1.813 1.875c-5.47 5.315-10.477 9.228-18.187 10.125v-2l-2 1v2h-181v-1c-4.41-.025-8.822-.043-13.232-.055-1.498-.005-2.995-.012-4.493-.02-2.164-.013-4.329-.018-6.494-.023l-3.935-.016c-4.03.12-7.854.573-11.846 1.114-2.123.107-4.25.174-6.375.188l-3.086.042C1468 986 1468 986 1466 984c-1.993-.024-1.993-.024-4.125.375L1458 985l1-3h-2v2h-2l-1-1c-4.047-3.012-6.993-4.431-12-5l-2-1v-2l-3-1c-2.601-3.979-4.42-7.22-5-12h2v-2h-2v-13h2v-2l-2-1 1.375-1.313c1.825-1.795 1.825-1.795 3.625-4.687h2l1-3c5.121-3.457 11.347-4.521 17.148-2.105zM1437 970l1 2 2-1-3-1zm5 4 1 3v-3h-1zm270 5 1 2z"/><path d="M1494 985h25v1h-25v-1zM1551 1220.188l3 .812 2.875.563 2.125.437v-1h35v1c4.14.21 4.14.21 8-1 5.132-.589 5.132-.589 8 0 2.646 2.53 4.42 4.722 5.934 8.055 1.088 2.305 1.088 2.305 4.254 4.32 3.7 3.007 5.717 6.668 7.812 10.875l.954 1.9c.754 1.584 1.409 3.215 2.046 4.85l-1 2 2 1-1 2h2l-.063 2.438c-.233 2.496-.233 2.496 1.063 3.562.073 2.353.084 4.708.063 7.063l-.028 3.91L1634 1276h-2l1 5h-2l1 3c-.938 2.688-.938 2.688-2 5h-2v2l2 1-1.438 1.25c-1.715 1.63-1.715 1.63-2 3.813-.562 1.937-.562 1.937-2.624 3.187l-1.938.75v3c-1.426 1.5-1.426 1.5-3.313 3-2.362 1.902-4.577 3.819-6.687 6l-1-1-1.688 1.813c-3.3 3.122-6.73 5.555-11.312 6.187l-2-1v2l-7 1v1l-3.395-.035c-1.472-.01-2.945-.019-4.418-.027l-2.236-.026c-3.25-.015-5.845.053-8.951 1.088a178.795 178.795 0 0 1-4-2l-2 1-1-2h-3l-3-1-3-.875c-2.86-1.073-4.098-1.823-6-4.125l-1-1-1.75-2.313c-2.627-3.138-5.303-5.929-9.176-7.437-2.968-1.789-4.061-4.071-5.762-7.063l-1.824-3.144c-1.359-2.779-2.164-4.98-2.488-8.043l1-1-1.063-1.688c-1.155-2.85-.747-4.397.063-7.312h-2l1-7h-2v-5h2l-1-7h2l-.625-1.75c-.465-2.789.326-3.815 1.625-6.25l-1-2 1.438-1.188c1.778-1.747 1.778-1.747 2-4.374.562-2.438.562-2.438 2.624-3.75L1534 1237v-3l2.438-.625L1539 1232c.898-3.053.898-3.053 1-6h2l1-2c4.059-4.059 4.059-4.059 8-3.813zm0 1.812 1 2zm54 0-1 2h2l-1-2zm2 1 1 2zm2 1 1 2zm2 1 1 2zm-68 1 1 2zm30 25v2l-4 1v2h-2c-2.17 3.164-3.667 6.412-5 10h-2v8l2 1 .75 2.75c1.634 4.248 3.631 5.575 7.25 8.25l1-2c2.322-.407 4.657-.744 7-1v2l1.875.438C1582 1286 1582 1286 1584 1287v-2l2-1 1 2a90.488 90.488 0 0 0 4-4v-2l4-2v-3l2-2c.333-3.5.333-3.5 0-7l-2-2v-3c-1.126-3.378-2.32-4.714-5-7h-3l-2-2-2 1v-2l-3.313.563C1576 1252 1576 1252 1573 1251zm0 34v2h2v-2h-2zm-23 29 1 3v-3h-1zm3 2 1 2zm2 1 1 2zM835.016 1392.04c4.138 1.084 7.95 2.302 11.843 4.112 2.965 1.174 6.002 1.951 9.078 2.785 10.925 3.118 10.925 3.118 15.063 6.063 2.752 5.57 2.312 12.063 1 18l-1 1a110.238 110.238 0 0 0-.063 5.563l.028 3.066L871 1435h-2l.563 3.25c.378 3.245.395 4.77-.563 7.75v3h-2l.563 2.313C868 1454 868 1454 867 1457v3h-2l1 4h-2l2 5-3-1 1 4h-2v2h2l-.938 2.75c-1.064 3.068-1.064 3.068-1.562 5.563L861 1484l-2 1v3l-3 1v2l2 1-1.5 1.313c-1.832 1.684-1.832 1.684-1.5 4.687-1 3-1 3-3 5v2l-2 2v2l-1.438 1.313c-1.982 2.14-2.055 3.86-2.562 6.687l-2 2c-6.021 7.476-6.021 7.476-9 16-2 1.625-2 1.625-4 3l1 2-1.5 1.375c-1.726 1.501-1.726 1.501-1.5 3.625l-2.5 2.438c-2.85 2.323-2.85 2.323-2.5 5.562l-2 2-.938 2.063C820 1559 820 1559 817 1560v3a92.03 92.03 0 0 1-1.875 4.625c-2.504 6.073-4.125 11.787-4.125 18.375h-2v7h-2v2l3 1v3c1.314 5.78 3.694 10.526 6.563 15.688.817 1.48 1.631 2.963 2.44 4.449.36.646.72 1.293 1.089 1.96.908 1.903.908 1.903 1.439 4.055.325 1.964.325 1.964 1.969 3.285 1.961 2.043 1.996 3.829 2.5 6.563l2 1 1 4 2 1c3.565 4.717 6.362 9.724 9 15a283.316 283.316 0 0 0 4.598 6.852C846 1665 846 1665 847.07 1667.219c.784 1.933.784 1.933 2.742 2.656C852 1671 852 1671 854.438 1673.938c2.423 2.895 4.186 4.462 7.563 6.062h3v2l3-1c2.333-.04 4.667-.044 7 0v2l2.402-.219c8.621-.686 17.2-.891 25.848-.906l3.355-.014 3.16.006 2.838.004C915 1682 915 1682 918 1683h4v2l1.563-.688c3.725-.477 6.082 1.075 9.437 2.688v2l3-1c2.848 1.25 2.848 1.25 6.063 3a100.868 100.868 0 0 0 5.937 3l2-1v4h3l2 2h2c1.113 1.46 1.113 1.46 2.313 3.375 2.251 3.34 3.938 4.167 7.687 5.625a88.406 88.406 0 0 1 1 5c.607.43 1.214.859 1.84 1.3 2.747 2.162 3.687 4.295 5.16 7.45 1.667 3.495 3.325 6.925 5.313 10.25 1.376 2.447 2.38 4.232 2.687 7l-1 2h2l.438 3.313c.445 3.618.445 3.618 1.562 6.687l-1 2h2l-.098 6.152c-.108 1.865-.108 1.865 1.098 2.848.1 1.576.13 3.156.133 4.734l.004 2.93-.012 3.086.012 3.04-.004 2.944-.004 2.695c-.131 2.615-.609 5.01-1.129 7.571v4h-2l2 5-2 2-1.207 2.605C982 1805 982 1805 978.863 1805.488l-3.55-.176-3.575-.136L969 1805v-1h-29l6 1v1c-4.417.029-8.833.047-13.25.063l-3.8.025-3.653.01-3.364.016C919 1806 919 1806 917.12 1805.5c-2.39-.565-4.515-.627-6.971-.628l-2.953-.009-3.22.007-3.405-.006c-3.72-.004-7.44-.001-11.16.002a14105.514 14105.514 0 0 0-23.998.002c-6.257.006-12.513.004-18.77-.001-6.024-.005-12.047-.005-18.071-.002-2.561 0-5.122 0-7.683-.002a4738.8 4738.8 0 0 0-10.736.007l-3.214-.007-2.96.009-2.563.001c-2.556.133-4.919.579-7.416 1.126-14.788 1.825-14.788 1.825-21.04-1.727-4.522-4.402-7.676-9.424-9.96-15.273l-1.344-3.32C758 1776.437 758 1776.437 758 1774l-1-1a119.335 119.335 0 0 1-2.063-3.875l-1.097-2.117C753 1765 753 1765 753 1762h-2l-.996-2.063c-6.75-13.754-14.072-26.883-23.402-39.07l-1.245-1.632c-1.17-1.53-2.353-3.05-3.537-4.57-1.616-2.367-2.41-3.873-2.82-6.665h-2c-1.857-1.843-3.49-3.835-5.176-5.836a106.572 106.572 0 0 0-3.43-3.89C707 1696.75 707 1696.75 705 1694c.188-2.375.188-2.375 1-4l-1.688-.188c-3.303-1.16-5.03-3.214-7.312-5.812v-2l-1.938-.813C693 1680 693 1680 692 1677h-2c-1.691-1.645-1.691-1.645-3.563-3.813l-1.878-2.144C683 1669 683 1669 682 1666h-2c-1.402-1.355-1.402-1.355-2.938-3.188l-1.527-1.792c-1.535-2.02-1.535-2.02-2.789-4.29-2.463-3.85-5.577-6.951-8.746-10.23-3.852-3.986-7.259-7.642-10-12.5-1.933-1.092-1.933-1.092-4-2-2.106-1.925-3.722-3.444-5-6l-2.938-2.063c-3.972-3.181-4.507-7.063-5.062-11.937v-2l-1-2h2v-3h-2v-7h2l-.5-2.813C637 1592 637 1592 637 1589l2-1-1-2 2-1-1-2 2-1c1.24-3.17 2-5.582 2-9l2-1c1.247-2.41 1.247-2.41 2-5l-1-2 2-1-1-2 2-1-1-2 2-1-1-2h3v-2l-2-1 2-2v-3h2l-1-5h2l-.438-1.723c-1.843-7.668-2.015-13.764.438-21.277l-3-1 2-5h-2l-.438-1.875c-.494-2.158-.494-2.158-1.562-4.125h2v-2h-2l-2-5h2v-2h-2l1-4h-2l1-3-1-1c1.779-4.334 4.532-5.994 8.32-8.535L657 1481v-3h2v-2h2v-2h2v-2h2v-2h2v-2h2l1-3c2.602-1.648 3.862-2 7-2v4l2 1a374.925 374.925 0 0 1 4 6l2 2c.673 2.332 1.338 4.665 2 7l1.563 3.125c1.36 2.72 2.103 4.865 2.437 7.875l-1 2h2l-1 4h2l-1 4h2l-1 5h2l-.098 6.152c-.108 1.865-.108 1.865 1.098 2.848.1 1.722.13 3.447.133 5.172l.004 3.203-.012 3.375.012 3.328-.004 3.219-.004 2.948c-.126 2.689-.589 5.124-1.129 7.755v4h-2l1 5h-2l.563 1.75c.477 2.457.194 3.894-.563 6.25h-2l2 4-2 1v4a264.271 264.271 0 0 1-3 5v3c-.577 2.693-1.301 5.335-2 8h-3v2h2l-.219 1.898-.281 2.477-.281 2.46c-.428 4.234.844 6.369 2.781 10.165l1 3 1.938.875C691 1613 691 1613 691.813 1615.313c1.517 3.434 3.477 4.485 6.628 6.378 1.957 1.643 2.034 2.866 2.559 5.309 1.984 1.284 1.984 1.284 4 2v2l1.875.688c2.125 1.312 2.125 1.312 3 3.624 1.937 4.628 6.055 6.975 10.125 9.688v2l2 1v2l2.313 1.313c3.082 1.935 3.904 3.566 5.687 6.687 2.557 2.749 4.873 4.916 8 7l.438 2 .562 2 1.938.938c2.834 1.46 2.949 3.14 4.062 6.062a90.223 90.223 0 0 0 4 4l1 2 3 1 .438 1.813c.758 2.95 2.365 4.12 4.562 6.187a249.263 249.263 0 0 1 3 4c.893 1.044 1.79 2.085 2.688 3.125C766 1701 766 1701 766 1703l2.375 2.313c2.557 2.617 3.412 4.328 4.625 7.687l2 1v3l4 2v4l2 1c3.681 4.747 6.455 9.573 9 15l1 2-1 2 2 1a130.232 130.232 0 0 1 3 6c1.04 2.105 2.082 4.209 3.125 6.313l1.57 3.175c1.08 2.388 1.08 2.388 2.305 3.512l2.337-.43c5.1-.793 10.115-.7 15.268-.684h3.52c3.83 0 7.661.009 11.492.016l7.978.005c6.28.003 12.559.01 18.838.021 7.15.011 14.302.017 21.453.022 14.705.01 29.41.028 44.114.05l-2 2h20l1-5 1-3h-3v-2h2v-2l-1.805-.664c-2.913-1.773-3.775-3.693-5.32-6.711l-1.508-2.898L936 1739l-1.18-2.352L934 1735h-2l-1.75-1.875c-2.611-2.466-4.82-3.19-8.25-4.125l2-1c-2.815-2.277-2.815-2.277-6-2l1-2h-2v2h-2v-3l-2.625 1c-3.332.987-5.927 1.164-9.375 1l4-1v-2c-2.146.14-4.292.287-6.438.438-1.194.08-2.39.162-3.62.246-2.828-.007-2.828-.007-3.942 1.316-1.78.087-3.565.107-5.348.098l-3.271-.01-3.443-.025-3.456-.014A2762.06 2762.06 0 0 1 869 1724l2-2c-8.548-.159-8.548-.159-17 1l1-3-4 1v-2h-2v2c-3.674-.578-6.412-1.577-9.625-3.438l-2.29-1.308c-1.724-1.037-3.41-2.138-5.085-3.254v-2l-1.734-.723c-10.874-6.13-23.442-24.72-27.313-36.449-1.216-3.607-3.246-5.185-5.953-7.828-2.121-3.168-3.791-6.373-5-10l-1.809-1.75c-2.7-2.772-4.423-5.879-6.254-9.25-2.543-4.689-2.543-4.689-5.527-9.102-1.708-2.299-2.764-4.65-3.91-7.273-1.348-3.066-2.703-5.997-4.313-8.938-1.373-3.107-1.336-5.325-1.187-8.687-.776-3.075-.776-3.075-3-5h2v-2l-2-1 1-2h-2l1-4h-2v-20h2l-.5-2.313C765 1572 765 1572 765 1569l2-1v-4c1.5-1.75 1.5-1.75 3-3l-1-2h2c1.101-2.674 2.08-5.279 2.875-8.063 1.23-3.21 2.691-4.582 5.125-6.937.643-2.069.643-2.069 1-4l2-2 1-3 2-2c2.63-3.03 4.098-5.133 5-9a101.46 101.46 0 0 1 3-3v-2h2l.313-2.375C796 1514 796 1514 799 1512v-3l3-3 .5-2c.5-2 .5-2 1.844-3.191 2.342-2.558 3.396-5.566 4.656-8.746 2.619-6.568 2.619-6.568 4.688-9.254 1.704-1.976 1.704-1.976 1.312-5.809l2-1c1.247-2.41 1.247-2.41 2-5l-1-2 2-1-1-2h3v-2l-2-1 2-2-1-2h3l-1-4h2l-1-5h2l-1-5h2l-1-5h2l-1-8h2l-1-8h2l-1-10h2l-.5-2.063c-.829-4.87-.69-9.177.5-13.937l-1-3c2.415-3.011 2.415-3.011 5.016-2.96zM832 1395v2h3l-1-2h-2zm5 1v2l2-1-2-1zm4 1v2l3-1-3-1zm5 1v2h2v-2h-2zm4 1 1 2 1-2h-2zm7 2 1 2 1-2h-2zm3 1v2l2-1-2-1zm3 1 1 2zm4 2v2h2v-2h-2zm-59 172v2h2v-2h-2zm-128 20v2h2v-2h-2zm-1 64 4 5 2-1a90.488 90.488 0 0 0-4-4h-2zm12 13 4 4-2-4h-2zm8 9 1 2 2-1-3-1zm112 1 1 2 2-1-3-1zm11 15 1 2 2-1-3-1zm-109 1 1 2 2-1-3-1zm116 7 3 3-1-3h-2zm7 5 1 3v-3h-1zm4 3 1 2zm2 1 1 2zm2 1 1 2zm-117 1 1 2 2-1-3-1zm120 0-1 2h2l-1-2zm79 9-1 2h2l-1-2zm3 1-1 2h2l-1-2zm2 2 3 3-1-3h-2zm3 3 2 3 2-1-4-2zm-173 46 1 2 1-2h-2zm16 23 1 2zm3 1 1 2 2-2h-3z"/></svg>